<svg xmlns="http://www.w3.org/2000/svg" width="48" height="48" viewBox="0 0 48 48">
  <path d="M20.1 27.225c.075-.225.3-.3.525-.3.45 0 .75.375.825 1.125 0 .375-.075.6-.225.825-.15.225-.375.3-.6.3-.525 0-.75-.375-.75-1.125 0-.375.075-.6.225-.825zM18 24c-.375 0-.525-.15-.525-.45 0-.15.075-.3.225-.45.15-.15.375-.225.6-.225.075 0 .225 0 .375.075v.675c-.225.225-.45.375-.675.375zM15 24c-.075 0-.15 0-.3-.075s-.15-.15-.075-.15v-1.65c.0375-.0375.075-.0563.1125-.075.0375-.0188.075-.0375.1125-.075.075-.075.15-.075.225-.075.3 0 .525.15.675.3.15.15.225.45.225.75 0 .375-.075.675-.225.825-.15.15-.375.225-.75.225zM23.175 27c.15-.075.225-.075.3-.075.3 0 .6.075.75.225.15.225.225.45.225.825 0 .675-.375 1.05-.975 1.05-.075 0-.225 0-.3-.075-.0439-.022-.0814-.0375-.1125-.0504-.075-.0311-.1125-.0466-.1125-.0996v-1.65c.0375-.0375.075-.0563.1125-.075.0375-.0188.075-.0375.1125-.075zM23.55 22.125c.15-.15.375-.225.6-.225.225 0 .45.075.525.225.15.15.225.3.225.525h-1.575c0-.225.075-.375.225-.525zM26.25 27c.15-.075.225-.075.3-.075.375 0 .6.075.75.225.15.225.225.45.225.825 0 .675-.3 1.05-.975 1.05-.075 0-.225 0-.3-.075-.0439-.022-.0814-.0375-.1125-.0504-.075-.0311-.1125-.0466-.1125-.0996v-1.65c0-.0422.0473-.0606.1021-.082.0427-.0167.09-.0352.1229-.068zM26.325 23.55c0-.15.075-.3.225-.45.15-.15.375-.225.6-.225.075 0 .225 0 .375.075v.675c-.225.225-.45.375-.675.375-.375 0-.525-.15-.525-.45zM31.8 23.1c-.15.15-.225.3-.225.45 0 .3.15.45.525.45.225 0 .45-.15.675-.375v-.675c-.15-.075-.3-.075-.375-.075-.225 0-.45.075-.6.225zM34.65 28.05c-.15.15-.3.225-.45.225-.15 0-.3-.075-.45-.225-.075-.15-.15-.3-.15-.525 0-.15 0-.3.15-.45.15-.15.3-.225.45-.225.225 0 .375.075.45.225.075.15.15.3.15.45 0 .225-.075.375-.15.525z"/>
  <path fill-rule="evenodd" d="M24 0L0 24l24 24 24-24L24 0zm1.5 16.275c.3-.075.675 0 .975.225.375.225.6.45.675.75-.3.075-.675 0-.975-.225-.3-.225-.525-.525-.675-.75zm.6 2.55c-.3-.15-.6-.45-.825-.825-.225-.375-.375-.825-.3-1.125.3.15.6.45.825.825.15.375.3.825.3 1.125zm.45-3.075c-.3 0-.6-.15-.825-.3.225-.15.525-.3.825-.3.375 0 .6.15.825.3-.15.15-.45.3-.825.3zm-.6-1.725c.225-.15.525-.15.75-.075-.075.225-.225.45-.45.6-.225.15-.525.15-.75.075.075-.225.225-.525.45-.6zm-.975-.675c.15-.225.3-.375.525-.375.075.225.075.45-.075.675-.15.225-.3.375-.525.375-.075-.225-.075-.45.075-.675zm-.9-6.9c.15.825.3 2.175.3 3.675s-.15 2.85-.3 3.675c-.15-.825-.3-2.175-.3-3.675s.15-2.85.3-3.675zm.3 12c0 .525-.15 1.05-.3 1.35-.15-.3-.3-.825-.3-1.35 0-.525.15-1.05.3-1.35.225.3.3.825.3 1.35zM21.75 24.3v-1.575c0-.3-.075-.525-.15-.675-.075-.15-.225-.15-.45-.15-.15 0-.225 0-.375.075s-.225.15-.3.225v2.1h-.525v-2.85h.375l.15.375c.15-.3.45-.45.825-.45.6 0 .975.375.975 1.125v1.8h-.525zm.15 3.675c0 .45-.15.825-.375 1.125-.225.3-.525.375-.975.375-.45 0-.75-.15-.975-.375-.225-.3-.375-.675-.375-1.125 0-.45.15-.825.375-1.05.225-.3.525-.375.975-.375.45 0 .75.15.975.375.3.225.375.6.375 1.05zm-2.55-9.825c.3-.375.825-.825 1.5-1.2s1.35-.6 1.8-.675c-.3.375-.825.825-1.5 1.2s-1.35.6-1.8.675zm2.325 1.5c0-.375.225-.975.525-1.575.2525-.505.6113-.8506.8974-1.1263.0539-.0518.1051-.1012.1526-.1487 0 .375-.225.975-.525 1.575-.375.6-.75 1.05-1.05 1.275zm.3-8.475l.0346.0649c.5855 1.0976 1.0933 2.0496 1.2404 2.7851-.525-.525-1.2-1.425-1.8-2.55l-.0346-.0649c-.5855-1.0976-1.0933-2.04957-1.2404-2.7851.45.525 1.125 1.425 1.8 2.55zm-1.5 1.875c.9.525 1.725 1.125 2.1 1.575-.6-.15-1.5-.525-2.4-1.05-.9-.525-1.725-1.125-2.1-1.575.6.15 1.5.525 2.4 1.05zm-.3 2.1c.9 0 1.725.15 2.25.3-.525.15-1.35.3-2.25.3-.9 0-1.725-.15-2.25-.3.525-.225 1.35-.3 2.25-.3zM17.7 20.4c0 .075 0 .15.075.225.0201.0201.0348.0402.0485.0588.0373.051.0667.0912.1765.0912h.3c.075 0 .15-.075.225-.15.075-.075.075-.15.075-.225h.45c0 .0879-.0257.1757-.0471.2485-.015.0515-.0279.0954-.0279.1265-.075.15-.225.3-.45.375-.0375 0-.0937.0188-.15.0375-.0563.0187-.1125.0375-.15.0375-.075 0-.15 0-.225-.075-.15-.075-.3-.225-.45-.375-.075-.075-.075-.225-.075-.375h.225zm.375 1.5c-.3 0-.6.075-.75.225l-.225-.375c.075-.075.225-.15.375-.225.15-.075.3-.075.525-.075.45 0 .75.075.9.3.225.225.3.525.3.9v1.05c0 .225.075.45.225.525v.225c-.225 0-.375 0-.45-.075-.075-.075-.15-.15-.225-.3-.225.225-.525.375-.9.375-.225 0-.45-.075-.6-.225-.15-.15-.225-.375-.225-.6 0-.3.15-.525.375-.75.225-.225.6-.3.975-.3.075 0 .225 0 .375.075-.075-.525-.3-.75-.675-.75zm-4.05-1.575h.525v1.425c.075-.075.15-.15.3-.15.15-.075.225-.075.375-.075.375 0 .675.15.975.375.225.3.375.6.375 1.05 0 .45-.15.825-.375 1.125-.225.3-.6.375-.975.375-.15 0-.3 0-.375-.075-.0573-.0286-.1036-.0464-.1432-.0615-.0641-.0244-.1104-.0421-.1568-.0885l-.3.225h-.225v-4.125zm.15 8.475c.3.225.525.3.675.3.3 0 .45-.15.45-.375s-.15-.375-.45-.525c-.1221-.0407-.2221-.1035-.3-.1524-.0657-.0412-.1157-.0726-.15-.0726l-.225-.225c-.0375-.0375-.0563-.075-.075-.1125-.0188-.0375-.0375-.075-.075-.1125 0-.0375-.0187-.075-.0375-.1125-.0187-.0375-.0375-.075-.0375-.1125 0-.225.075-.45.225-.525.15-.15.375-.225.675-.225.225 0 .45.075.825.225l-.15.45c-.225-.15-.375-.225-.6-.225-.15 0-.225 0-.3.075-.075.075-.15.15-.15.225 0 .15.075.3.3.45l.375.15c.225.075.375.225.525.375.075.15.15.3.15.525 0 .225-.075.45-.3.6-.15.15-.45.225-.75.225s-.6-.075-.825-.225l.225-.6zm.6 4.875c.15.15.375.225.675.225.225 0 .45-.075.675-.225l.225.45c-.3.15-.6.225-.975.225s-.675-.15-.975-.375c-.225-.225-.375-.6-.375-1.05 0-.45.15-.825.375-1.05.3-.3.6-.375 1.05-.375.15 0 .3 0 .45.075.15.075.3.15.375.225l-.225.375c-.0464-.0463-.0927-.0641-.1568-.0885-.0396-.0151-.0859-.0329-.1432-.0615-.15-.075-.225-.075-.375-.075-.3 0-.525.075-.675.3-.15.225-.225.45-.225.75.075.3.15.525.3.675zm2.85.675H17.1v-2.4h-.375v-.45h.9v2.85zm0-3.375c-.075.075-.15.075-.225.075-.075 0-.15 0-.225-.075-.075-.075-.075-.15-.075-.225 0-.075 0-.15.075-.225.075-.075.15-.075.225-.075.075 0 .15 0 .225.075.075.075.075.15.075.225 0 .075 0 .15-.075.225zm.45-3.9c-.075-.15-.225-.15-.45-.15-.15 0-.225 0-.375.075s-.225.15-.3.225V29.4h-.525v-4.05h.525v1.5c.0227-.0227.0454-.0523.0702-.0845.057-.0744.1252-.1632.2298-.2155.15-.075.3-.075.45-.075.3 0 .525.075.75.3.15.225.225.45.225.825v1.8h-.525v-1.8c.075-.225 0-.375-.075-.525zm1.35 7.275c-.225 0-.45-.075-.6-.225-.15-.15-.225-.375-.225-.6V31.95h-.3v-.45h.3v-.6l.525-.225v.75h.75v.375h-.75v1.425c0 .225.075.375.15.525.075.075.225.15.375.15s.3 0 .375-.075l.075.45c-.225.075-.45.075-.675.075zm2.25.45c-.075.15-.225.3-.375.45-.225.15-.45.15-.675.15v-.45c.225 0 .375-.075.525-.15.15-.075.225-.225.225-.375s0-.3-.075-.45c-.075-.15-.15-.3-.225-.525l-.825-1.95h.525l.825 2.175.75-2.175h.525l-1.2 3.3zm2.925-5.7c-.225.3-.6.45-.975.45-.15 0-.225 0-.375-.075-.0573-.0286-.1036-.0464-.1432-.0615-.0641-.0244-.1104-.0422-.1568-.0885V30.6h-.525v-4.05h.525v.225c.225-.225.45-.3.675-.3.375 0 .75.15.975.375.225.225.375.6.375 1.125 0 .45-.15.825-.375 1.125zm.75-6.075h-2.025c0 .375.075.6.3.75.15.15.375.225.6.225.3 0 .525-.075.75-.225l.225.375c-.075.075-.225.15-.375.225-.225.075-.45.075-.675.075-.375 0-.675-.15-.9-.375-.3-.3-.45-.6-.45-1.05 0-.45.15-.825.45-1.125.225-.225.525-.375.9-.375s.75.15.975.375c.225.225.375.525.375.9-.053 0-.0686.0375-.0996.1125-.0129.0311-.0284.0686-.0504.1125zm2.325 6.075c-.225.3-.6.45-.975.45-.15 0-.225 0-.375-.075-.0573-.0286-.1036-.0464-.1432-.0615-.0641-.0244-.1104-.0421-.1568-.0885V30.6H25.5v-4.05h.525v.225c.225-.225.45-.3.675-.3.375 0 .75.15.975.375.225.225.375.6.375 1.125 0 .45-.15.825-.375 1.125zm.6-4.65c-.225 0-.375 0-.45-.075-.075-.075-.15-.15-.225-.3-.225.225-.525.375-.9.375-.225 0-.45-.075-.6-.225-.15-.15-.225-.375-.225-.6 0-.3.15-.525.375-.75.225-.225.6-.3.975-.3.075 0 .225 0 .375.075 0-.45-.225-.675-.6-.675-.3 0-.6.075-.75.225l-.3-.45c.075-.075.225-.15.375-.225.15-.075.3-.075.525-.075.45 0 .75.075.9.3.225.225.3.525.3.9v1.05c0 .225.075.45.225.525v.225zm1.125 5.025h-.525V27H28.5v-.45h.9v2.925zm0-3.45c-.075.075-.15.075-.225.075-.075 0-.15 0-.225-.075-.075-.075-.075-.15-.075-.225 0-.075 0-.15.075-.225.075-.075.15-.075.225-.075.075 0 .15 0 .225.075.075.075.075.15.075.225 0 .0375-.0187.075-.0375.1125-.0188.0375-.0375.075-.0375.1125zm-.675-1.8l.15-.45c.0803.0402.1553.0803.2249.1176.1902.102.3403.1824.4501.1824.3 0 .45-.15.45-.375s-.15-.375-.45-.525c-.1221-.0407-.2221-.1035-.3-.1524-.0657-.0412-.1157-.0726-.15-.0726l-.225-.225c-.0375-.0375-.0562-.075-.075-.1125-.0188-.0375-.0375-.075-.075-.1125 0-.0375-.0187-.075-.0375-.1125-.0188-.0375-.0375-.075-.0375-.1125 0-.225.075-.45.225-.525.15-.15.375-.225.675-.225.225 0 .45.075.825.225l-.15.45c-.225-.15-.375-.225-.6-.225-.15 0-.225 0-.3.075-.075.075-.15.15-.15.225 0 .15.075.3.3.45l.375.15c.225.075.375.225.45.375.075.15.15.3.15.525 0 .225-.075.45-.3.6-.15.15-.45.225-.75.225-.1098-.1098-.2598-.1794-.45-.2677-.0696-.0323-.1447-.0671-.225-.1073zm3.75 5.25h-.525V27.75c0-.3-.075-.525-.15-.675-.075-.15-.225-.15-.45-.15-.15 0-.225 0-.375.075s-.225.15-.3.225V29.4h-.525v-2.925h.375l.15.375c.15-.3.45-.45.825-.45.6 0 .975.375.975 1.125v1.95zm.375-5.4c-.225.225-.525.375-.9.375-.225 0-.45-.075-.6-.225-.15-.15-.225-.375-.225-.6 0-.3.15-.525.375-.75.225-.225.6-.3.975-.3.075 0 .225 0 .375.075 0-.45-.225-.675-.6-.675-.3 0-.6.075-.75.225l-.3-.45c.075-.075.225-.15.375-.225.15-.075.3-.075.525-.075.45 0 .75.075.9.3.225.225.3.525.3.9v1.05c0 .225.075.45.225.525v.225c-.225 0-.375 0-.45-.075-.15-.075-.225-.225-.225-.3zM35.1 30.3c-.225.15-.525.225-.9.225-.15 0-.375 0-.6-.075-.225-.075-.375-.15-.525-.225l.3-.375c.3.225.6.3.825.3.225 0 .45-.075.525-.15.15-.075.225-.15.225-.3 0-.225-.15-.375-.525-.375-.075 0-.15 0-.3.075-.0879 0-.1757.0257-.2485.0471-.0515.015-.0954.0279-.1265.0279-.375 0-.6-.15-.6-.45 0-.075.075-.15.15-.225.075-.075.225-.15.375-.15-.375-.225-.6-.525-.6-.975 0-.3.075-.525.3-.75.225-.225.45-.3.75-.3s.525.075.675.15l.225-.3.3.3-.3.225c.15.15.225.375.225.675 0 .3-.075.525-.3.75-.15.225-.45.3-.75.375l-.45.075c-.075 0-.15 0-.225.075-.075 0-.15.075-.15.15s.075.075.3.075c.075 0 .225 0 .375-.075.0879 0 .1757-.0257.2485-.0471.0515-.015.0954-.0279.1265-.0279.3 0 .525.075.675.225.15.15.225.3.225.6.15.075 0 .3-.225.45z" clip-rule="evenodd"/>
</svg>
