<svg xmlns="http://www.w3.org/2000/svg" width="74" height="20" viewBox="0 0 75 20">
    <path d="M45.8 3.61c-.51-.35-1.14-.63-1.68-.63-.61 0-2.05.26-2.05 2.3v.51h3.18v2.88h-3.18v11.18h-3.24V8.68h-2.45V5.79h2.45v-.91c0-3.17 2.49-4.88 4.84-4.88 1.2 0 2.4.35 3.5 1.03L45.8 3.61z"/>
    <path fill-rule="evenodd" d="M28.8 5.62c-3.96 0-6.83 3.07-6.83 7.18 0 4.11 3.05 7.2 7.08 7.2 2.17 0 4.27-.87 5.65-2.5l-2.13-2.21c-.95 1.14-2.15 1.75-3.51 1.75-1.94 0-3.45-1.34-3.78-3.3h10.28v-.93c-.18-4.38-2.84-7.19-6.76-7.19zm-3.44 5.57c.5-1.55 1.86-2.6 3.42-2.6 1.77 0 2.93.91 3.3 2.6h-6.72z" clip-rule="evenodd"/>
    <path d="M15.08 15.68l-2.34-7.58001c-.52-1.68-1.11-2.1-2.23-2.1-1.12 0-1.71.42-2.23 2.1L5.94 15.68 3.5 5.78999H0L3.61 18.21C3.97 19.43 4.86 20 5.92 20c1.11 0 1.94-.72 2.29-1.8l2.29-7.13 2.29 7.13c.35 1.08 1.18 1.8 2.29 1.8 1.06 0 1.96-.57 2.31-1.79L21 5.78999h-3.5L15.08 15.68zM70.29 12.44c1.38-.83 3.44-3.71 3.77-6.66H70.7c-.04 2.25-1.99 4.39-3.07 5.07-1.08-.68-3.02-2.81-3.07-5.07H61.2c.33 2.94 2.39 5.83 3.77 6.66-1.38.78-3.82 4.13-4.03 7.4h3.27c.24-2.52 2.49-5.28 3.43-5.8.94.52 3.19 3.28 3.43 5.8h3.27c-.23-3.27-2.67-6.62-4.05-7.4z"/>
    <path fill-rule="evenodd" d="M45.95 12.81c0-4.03 3.14-7.19 7.14-7.19 4 0 7.14 3.16 7.14 7.19S57.09 20 53.09 20c-4.01 0-7.14-3.16-7.14-7.19zm3.18 0c0 2.45 1.67 4.22 3.96 4.22 2.28 0 3.93-1.78 3.93-4.22 0-2.45-1.65-4.22-3.93-4.22-2.3 0-3.96 1.78-3.96 4.22z" clip-rule="evenodd"/>
</svg>
