<?xml version="1.0" standalone="no"?>
<!DOCTYPE svg PUBLIC "-//W3C//DTD SVG 20010904//EN"
 "http://www.w3.org/TR/2001/REC-SVG-20010904/DTD/svg10.dtd">
<svg version="1.0" xmlns="http://www.w3.org/2000/svg"
 width="864.000000pt" height="864.000000pt" viewBox="0 0 864.000000 864.000000"
 preserveAspectRatio="xMidYMid meet">
<metadata>
Created by potrace 1.14, written by Peter Selinger 2001-2017
</metadata>
<g transform="translate(0.000000,864.000000) scale(0.100000,-0.100000)"
fill="#000000" stroke="none">
<path d="M0 4320 l0 -4320 3644 0 3644 0 48 73 c54 81 121 162 233 286 86 95
306 314 348 348 64 50 75 59 101 81 59 51 129 100 152 106 14 4 39 13 55 21
124 54 101 57 323 -39 46 -20 85 -36 88 -36 2 0 4 1755 4 3900 l0 3900 -4320
0 -4320 0 0 -4320z m3892 3449 c416 -28 668 -105 947 -289 260 -171 424 -337
618 -628 240 -358 308 -619 317 -1212 3 -167 6 -190 25 -228 26 -51 16 -55
-19 -7 -14 19 -30 35 -37 35 -6 0 -18 6 -25 13 -7 7 -24 18 -38 25 -14 6 -32
16 -40 20 -25 15 -83 40 -119 51 -28 9 -38 8 -51 -4 -19 -17 -30 -19 -30 -5 0
6 6 10 14 10 8 0 13 8 11 18 -2 9 -4 19 -4 21 -1 2 -10 -4 -21 -14 -12 -11
-20 -13 -20 -6 0 7 -14 11 -38 10 -21 -2 -43 1 -50 5 -7 4 -12 2 -12 -6 0 -7
-12 -21 -28 -31 -19 -14 -27 -28 -29 -52 -1 -18 -11 -54 -23 -80 -26 -57 -22
-97 18 -192 16 -38 36 -104 46 -148 10 -44 23 -96 28 -115 18 -60 112 -240
125 -240 19 0 16 23 -7 43 -11 9 -20 24 -20 32 0 13 3 13 20 3 11 -7 20 -16
20 -20 0 -4 8 -12 18 -17 16 -8 17 -6 14 25 -3 26 -1 34 9 32 9 -2 14 6 14 22
1 20 5 24 23 22 16 -2 22 2 22 15 0 26 -20 52 -27 36 -7 -18 -30 -16 -37 3
-11 29 -7 64 9 64 8 0 15 5 15 12 0 6 -3 9 -6 5 -3 -3 -14 3 -25 14 -10 10
-25 16 -34 12 -17 -6 -85 26 -85 39 0 5 -11 8 -24 8 -27 0 -43 15 -27 24 5 4
13 2 16 -4 4 -6 15 -8 25 -5 25 8 117 -32 136 -59 8 -12 16 -20 19 -19 7 3 87
-33 107 -49 17 -12 16 -17 -7 -79 -32 -88 -17 -101 21 -19 10 22 36 50 45 50
5 0 -5 -27 -22 -60 -37 -74 -49 -170 -42 -335 7 -160 -12 -476 -36 -600 -11
-55 -22 -127 -26 -160 -7 -58 -25 -101 -38 -88 -4 3 -7 15 -7 25 0 15 -5 18
-20 13 -14 -4 -20 -2 -20 9 0 8 -9 18 -20 21 -11 3 -20 15 -20 26 0 10 -4 19
-10 19 -5 0 -10 7 -10 15 0 8 -7 15 -15 15 -13 0 -14 2 -3 14 7 8 18 11 23 8
6 -3 1 5 -10 18 -14 16 -16 24 -7 27 7 3 12 21 12 43 0 21 5 42 10 45 13 8 13
52 -1 60 -6 4 -9 30 -6 66 2 32 0 59 -4 59 -5 0 -9 9 -9 19 0 11 -4 22 -10 26
-5 3 -7 11 -4 18 2 7 -5 23 -17 36 -18 19 -19 25 -8 33 11 8 10 8 -5 4 -14 -5
-17 -2 -12 10 5 13 4 14 -7 5 -26 -21 -130 -51 -176 -50 -43 1 -40 2 34 18 83
17 113 33 155 85 13 17 18 26 9 19 -9 -8 -20 -9 -29 -3 -22 14 -100 12 -100
-2 0 -6 -6 -3 -14 7 -10 15 -17 17 -27 8 -16 -12 -59 0 -59 17 0 5 -9 10 -20
10 -11 0 -20 -7 -20 -16 0 -10 -4 -12 -12 -7 -7 4 -22 8 -33 8 -11 0 -20 7
-20 15 0 8 -4 20 -8 26 -4 7 0 17 8 24 8 7 15 16 15 21 0 17 -44 9 -67 -13
-20 -19 -23 -19 -23 -4 0 14 -5 16 -22 10 -29 -10 -47 -9 -188 9 -63 9 -132
13 -153 10 -27 -3 -37 -1 -37 9 0 10 -9 13 -27 11 -48 -6 -68 20 -66 83 3 63
-12 106 -23 67 -7 -25 -23 -30 -41 -12 -6 6 -17 8 -24 3 -10 -6 -8 -9 5 -13
15 -6 15 -8 -4 -28 -22 -24 -9 -43 15 -23 8 7 16 9 16 4 7 -53 22 -103 29 -99
4 3 11 -6 14 -20 4 -14 17 -32 31 -41 32 -21 32 -34 -1 -34 -14 0 -23 4 -20 9
3 5 -2 15 -11 22 -12 10 -14 10 -9 2 4 -8 1 -13 -9 -13 -14 0 -14 -3 1 -26 13
-19 23 -24 38 -19 67 19 85 18 95 -6 8 -21 10 -21 10 -4 1 15 4 16 13 7 17
-17 -5 -31 -47 -33 -30 -1 -35 -1 -68 8 -12 4 -16 1 -12 -9 7 -18 -45 -23 -57
-6 -6 9 -10 7 -14 -9 -7 -26 -19 -30 -28 -8 -3 9 -12 12 -22 8 -11 -4 -15 -2
-11 4 10 15 -3 44 -15 37 -6 -4 -7 -19 -4 -35 7 -34 -10 -48 -29 -23 -10 14
-17 16 -25 8 -9 -9 -18 -9 -37 1 -14 8 -32 11 -40 8 -7 -3 -13 -2 -11 3 4 11
-5 14 -34 14 -19 0 -20 -2 -8 -11 15 -11 6 -10 -58 7 -18 5 -21 3 -16 -10 5
-13 -1 -16 -31 -16 -29 0 -38 5 -42 20 -7 28 -29 9 -39 -33 -6 -28 -8 -30 -15
-12 -8 19 -8 19 -15 -2 -3 -13 -11 -23 -16 -23 -5 0 -6 -4 -3 -10 4 -6 -3 -9
-16 -7 -27 3 -37 -19 -12 -26 12 -3 8 -5 -9 -6 -18 -1 -28 -7 -28 -16 0 -9
-12 -20 -26 -25 -18 -7 -24 -15 -20 -26 8 -20 -3 -64 -16 -64 -6 0 -7 13 -2
32 6 28 5 31 -8 20 -8 -6 -18 -9 -22 -5 -4 4 -4 0 -1 -10 8 -20 -20 -51 -37
-41 -8 5 -7 1 2 -10 8 -11 16 -14 18 -7 5 16 22 14 22 -3 0 -18 -23 -27 -40
-16 -9 6 -18 0 -27 -17 -16 -31 -7 -46 12 -20 11 16 13 14 17 -22 2 -27 -1
-42 -9 -46 -7 -2 -19 -17 -25 -32 -13 -29 -26 -43 -42 -43 -5 0 -1 9 9 20 10
11 15 23 12 27 -10 9 -37 -29 -34 -47 2 -19 -40 -63 -48 -50 -4 6 -1 10 5 10
6 0 8 5 5 10 -3 6 -2 10 3 10 6 0 8 9 5 19 -5 19 -5 19 -24 0 -10 -10 -26 -19
-34 -19 -10 0 -3 11 17 30 18 16 27 30 21 30 -7 0 -13 12 -13 26 0 14 4 23 9
20 14 -9 20 32 6 44 -8 7 -21 7 -38 1 -14 -5 -28 -7 -31 -4 -3 4 -6 -1 -6 -10
0 -9 -5 -17 -11 -17 -11 0 -2 41 12 50 4 3 6 19 5 35 -5 39 3 62 15 43 7 -10
9 -9 9 3 0 9 -9 19 -20 22 -11 3 -18 1 -15 -3 3 -5 1 -10 -5 -12 -5 -1 -11
-12 -13 -23 -1 -11 -6 -26 -11 -33 -4 -7 -5 -19 -2 -27 6 -18 -3 -47 -13 -40
-7 4 4 112 15 147 2 9 0 19 -6 23 -5 3 -10 1 -10 -5 0 -6 -4 -9 -9 -6 -5 4
-11 1 -13 -6 -3 -7 -10 -8 -17 -3 -9 5 -12 22 -8 54 5 41 4 44 -9 26 -8 -10
-12 -26 -9 -34 11 -35 14 -91 5 -86 -6 4 -10 -5 -10 -19 0 -32 -14 -40 -35
-19 -14 14 -18 14 -26 2 -5 -8 -9 -17 -9 -21 0 -11 -40 -10 -40 1 0 17 49 61
68 61 21 0 37 36 21 46 -5 3 -9 0 -9 -5 0 -6 -7 -11 -15 -11 -8 0 -15 5 -15
10 0 15 -33 12 -56 -5 -24 -18 -34 -19 -34 -1 0 8 8 16 18 19 9 2 1 4 -19 3
-32 0 -38 -4 -49 -34 -17 -47 -22 -38 -29 51 -2 15 -21 6 -21 -10 0 -10 -10
-29 -21 -43 -20 -24 -20 -18 -2 27 5 12 2 15 -10 10 -9 -3 -19 -2 -22 3 -13
21 -21 9 -17 -22 5 -30 3 -32 -12 -19 -9 7 -16 20 -16 27 0 8 -10 14 -22 13
-16 0 -18 -2 -8 -6 25 -10 29 -26 14 -55 -13 -25 -13 -27 3 -22 10 3 3 -4 -16
-17 -32 -21 -34 -22 -47 -5 -8 12 -19 16 -33 11 -22 -7 -24 -4 -36 50 l-7 30
-9 -24 c-6 -14 -8 -30 -5 -37 6 -15 -15 -74 -26 -74 -4 0 -8 5 -8 10 0 6 -4
10 -10 10 -5 0 -7 -6 -5 -12 3 -7 0 -20 -5 -28 -8 -12 -12 -13 -19 -1 -7 10
-13 11 -30 2 -22 -12 -27 -26 -12 -35 11 -7 2 -46 -10 -46 -5 0 -9 12 -9 26 0
20 -4 25 -17 20 -9 -4 -20 -1 -24 5 -9 16 -29 2 -29 -21 0 -10 -7 -25 -15 -33
-8 -8 -12 -17 -9 -20 3 -3 18 8 33 24 16 16 30 29 33 29 3 0 8 -18 12 -41 7
-42 28 -50 35 -13 2 10 8 30 14 44 6 14 10 28 9 33 -3 10 10 9 28 -3 13 -8 13
-13 2 -31 -18 -29 -25 -69 -12 -69 5 0 10 7 10 15 0 8 5 15 10 15 6 0 10 4 10
9 0 5 18 40 40 78 22 37 40 62 40 56 0 -7 5 -13 10 -13 6 0 10 7 10 15 0 8 7
15 15 15 12 0 14 -7 9 -27 -10 -41 -13 -44 -35 -33 -17 10 -19 7 -19 -23 0
-18 -6 -39 -12 -46 -11 -10 -10 -15 2 -24 18 -14 15 -61 -6 -77 -8 -7 -14 -20
-14 -29 0 -9 -5 -22 -12 -29 -26 -26 -24 -9 5 48 23 45 28 63 19 72 -15 15
-42 -7 -42 -36 -1 -28 -28 -88 -29 -63 -1 9 -5 17 -10 17 -15 0 -22 33 -9 42
11 6 11 8 0 8 -7 0 -17 -10 -22 -22 -8 -20 -9 -20 -9 -4 -1 18 -2 18 -20 2
-11 -10 -25 -15 -31 -11 -7 5 -11 0 -9 -11 2 -11 -2 -29 -9 -41 -8 -14 -8 -23
-1 -25 6 -2 4 -17 -5 -40 -10 -24 -12 -39 -6 -43 6 -4 7 -12 4 -18 -5 -8 -4
-9 4 -2 5 6 12 19 14 30 2 11 9 19 16 18 6 -2 9 4 6 12 -4 8 -11 15 -17 15 -5
0 -3 8 5 18 9 9 18 26 20 37 2 12 13 21 26 23 20 3 22 0 16 -25 -4 -15 -11
-36 -16 -45 -5 -10 -11 -36 -14 -59 -6 -40 -5 -40 16 -29 20 11 21 10 15 -12
-4 -12 -13 -30 -21 -38 -12 -12 -14 -12 -14 2 0 28 -26 41 -60 30 -27 -10 -52
0 -32 12 5 3 9 28 8 56 -1 28 1 53 5 56 4 2 5 13 2 24 -3 13 2 30 13 43 11 12
25 32 31 44 12 21 11 22 -10 14 -14 -5 -23 -18 -25 -35 -2 -14 -10 -26 -18
-26 -9 0 -14 -11 -14 -34 0 -29 -39 -99 -40 -71 0 6 5 16 12 23 7 7 9 12 6 12
-4 0 -3 14 2 30 5 17 6 30 3 30 -9 0 -32 -34 -33 -48 0 -7 -11 -25 -25 -40
-32 -34 -32 -46 0 -40 38 8 30 -11 -13 -30 -32 -14 -38 -21 -31 -37 6 -16 8
-16 8 -4 1 21 31 33 45 19 7 -7 2 -10 -15 -11 -16 -1 -19 -3 -6 -6 9 -2 17 -9
17 -14 0 -6 5 -7 11 -4 5 4 23 9 40 12 28 4 29 3 29 -33 0 -40 -23 -74 -49
-73 -10 0 -12 2 -3 6 14 5 17 33 3 33 -4 0 -20 -10 -35 -21 l-27 -21 -6 21
c-3 11 -12 21 -19 21 -8 0 -14 9 -14 21 0 11 -4 18 -10 14 -5 -3 -18 0 -28 6
-16 10 -25 8 -51 -10 -18 -13 -35 -20 -38 -17 -4 3 -1 6 6 6 7 0 9 5 6 10 -3
6 -21 10 -38 10 l-32 -1 29 -25 c16 -15 37 -24 47 -21 15 4 16 1 7 -17 l-10
-23 -31 29 c-18 16 -40 35 -49 43 -10 8 -18 20 -18 26 0 6 8 8 18 5 9 -3 23
-2 29 2 8 5 -3 14 -32 27 -33 13 -45 24 -45 39 0 12 -3 16 -8 10 -20 -31 -88
-19 -114 20 -4 6 -9 8 -13 5 -3 -3 4 -18 15 -32 12 -16 16 -28 10 -32 -19 -12
-10 -30 20 -43 17 -8 30 -20 30 -28 0 -20 39 -33 72 -23 16 4 28 4 28 -2 0 -5
-11 -9 -25 -9 -16 0 -25 -6 -25 -15 0 -8 5 -15 12 -15 6 0 3 -7 -8 -16 -10 -8
-14 -13 -7 -9 8 3 18 -8 27 -30 8 -19 22 -38 31 -41 23 -9 18 -23 -7 -16 -14
3 -19 2 -14 -6 4 -7 15 -12 26 -12 27 0 35 -30 7 -31 -18 0 -17 -2 8 -11 39
-14 42 -17 26 -28 -12 -7 -12 -11 2 -24 8 -9 23 -16 31 -16 10 0 16 -9 16 -21
0 -11 6 -27 14 -35 16 -16 51 -19 41 -4 -3 6 -1 10 5 10 6 0 15 -11 20 -25 5
-14 14 -25 21 -25 6 0 9 -6 6 -12 -2 -7 8 -21 22 -30 l26 -18 -25 0 c-30 1
-65 20 -66 38 -3 38 -5 43 -13 37 -5 -3 -8 -21 -6 -40 4 -43 -17 -47 -41 -9
-15 22 -19 23 -32 11 -18 -18 -8 -37 20 -37 14 0 18 -5 14 -15 -6 -17 -1 -18
29 -6 11 5 25 4 33 -1 15 -13 16 -48 1 -48 -6 0 -9 9 -6 19 5 20 6 20 -57 12
-6 0 0 -10 12 -21 27 -25 20 -55 -9 -37 -18 11 -18 12 -1 18 14 6 10 10 -18
22 -20 9 -39 12 -45 7 -6 -5 -17 -5 -24 0 -8 4 -20 6 -28 3 -7 -3 -13 0 -13 6
0 6 5 11 10 11 6 0 10 6 10 14 0 13 -4 13 -27 1 -21 -11 -29 -12 -35 -2 -5 8
-8 7 -8 -4 0 -23 -23 -30 -58 -17 -24 9 -34 9 -46 -2 -24 -19 -11 -25 60 -25
47 0 63 3 59 13 -2 6 0 12 5 12 6 0 10 -7 10 -15 0 -8 7 -15 15 -15 8 0 15 -4
15 -9 0 -19 -21 -22 -50 -7 -17 8 -30 10 -30 5 0 -4 -13 -6 -30 -2 -19 3 -30
1 -30 -6 0 -6 11 -11 24 -11 15 0 27 -7 29 -17 14 -51 16 -72 8 -77 -12 -8
-34 21 -26 34 3 5 2 10 -4 10 -16 0 -23 -19 -17 -43 4 -19 12 -22 53 -22 86
-1 132 -18 109 -41 -18 -17 -30 -18 -23 -1 3 7 -3 13 -14 14 -80 8 -86 5 -70
-26 17 -31 -12 -73 -45 -65 -13 4 -24 2 -24 -4 0 -5 18 -12 40 -14 44 -4 70 4
51 16 -16 10 -13 26 5 26 8 0 12 5 9 10 -10 17 5 11 28 -10 14 -14 30 -19 44
-15 13 3 23 1 23 -5 0 -5 -4 -10 -10 -10 -17 0 -11 -20 8 -27 9 -4 24 -13 32
-22 13 -13 13 -14 0 -9 -8 3 -23 1 -32 -3 -10 -5 -28 -5 -43 1 -19 7 -24 7
-19 -1 4 -7 1 -10 -7 -7 -8 3 -14 10 -14 16 0 16 -12 25 -25 17 -8 -5 -8 -10
0 -20 7 -8 9 -19 5 -25 -5 -8 2 -11 21 -9 16 2 43 -5 59 -14 20 -11 24 -16 13
-17 -24 0 -33 4 -31 12 2 5 -2 8 -8 8 -6 0 -8 -7 -5 -16 4 -9 1 -23 -5 -31
-14 -17 -5 -28 13 -17 7 5 22 9 32 9 21 0 31 41 13 52 -13 8 13 22 30 16 7 -3
13 -11 13 -18 0 -18 66 -55 97 -55 l27 0 -22 -20 c-26 -25 -28 -43 -6 -65 9
-9 14 -19 10 -22 -12 -12 -46 42 -41 65 4 16 1 22 -11 22 -8 0 -22 7 -31 15
-8 9 -18 13 -22 9 -3 -4 -1 -9 5 -11 15 -5 5 -50 -12 -57 -8 -3 -14 -1 -14 4
0 6 -7 10 -15 10 -9 0 -18 7 -21 15 -7 16 -34 21 -34 6 0 -5 7 -14 15 -21 8
-7 15 -18 15 -25 0 -6 9 -20 20 -30 11 -10 20 -24 20 -32 0 -7 6 -13 14 -13
15 0 32 -53 22 -69 -4 -5 2 -12 13 -16 20 -6 37 -35 21 -35 -6 0 -10 4 -10 9
0 5 -16 11 -35 13 -27 3 -35 0 -35 -12 -1 -12 -2 -12 -11 3 -5 9 -19 17 -29
17 -11 0 -20 7 -20 15 0 8 7 15 16 15 21 0 14 32 -9 36 -9 1 -15 -2 -12 -6 3
-5 -4 -14 -15 -20 -29 -16 -27 -58 4 -66 14 -3 23 -11 20 -19 -4 -8 11 -14 46
-19 34 -5 48 -11 44 -18 -5 -7 -2 -9 9 -5 11 4 14 2 11 -7 -3 -8 5 -24 18 -36
l23 -22 -40 6 c-22 4 -46 15 -53 24 -7 9 -18 16 -23 15 -5 -2 -9 2 -9 7 0 6
-7 10 -15 10 -8 0 -15 -4 -15 -10 0 -5 5 -10 10 -10 6 0 10 -9 10 -20 0 -11
-4 -20 -9 -20 -14 0 -33 28 -27 39 4 6 -5 28 -19 50 -14 23 -25 47 -25 56 0 8
-6 15 -14 15 -7 0 -19 7 -26 15 -7 8 -16 13 -20 10 -16 -10 -42 27 -36 51 5
19 2 24 -13 24 -12 0 -18 6 -17 18 1 13 -6 17 -28 15 -37 -3 -45 -12 -22 -25
15 -8 16 -12 5 -19 -8 -5 -26 -9 -40 -9 -18 0 -28 -6 -32 -20 -6 -24 18 -51
38 -44 11 5 15 -1 15 -19 0 -13 8 -31 18 -38 15 -13 16 -12 3 4 -12 15 -12 17
3 11 25 -9 22 -70 -4 -77 -16 -4 -20 0 -20 18 0 13 -7 26 -16 29 -10 4 -14 12
-10 22 5 14 4 15 -8 5 -19 -16 -30 16 -28 87 1 51 1 52 -27 52 -22 0 -30 5
-33 23 -7 35 1 47 33 47 19 0 29 5 29 15 0 8 -6 15 -14 15 -8 0 -17 14 -21 30
-6 25 -10 30 -27 24 -19 -6 -20 -3 -14 27 3 19 11 36 16 37 6 2 10 10 10 17 0
10 -8 11 -27 6 -16 -4 -28 -13 -28 -21 0 -7 -6 -15 -13 -18 -8 -2 -10 2 -5 14
4 11 3 15 -4 11 -6 -4 -19 5 -28 19 -9 15 -12 23 -6 20 6 -4 11 -2 11 4 0 15
-29 25 -41 13 -14 -14 -59 -4 -59 12 0 7 -6 15 -12 18 -10 3 -10 9 0 27 10 16
10 20 1 14 -8 -5 -11 -2 -6 8 4 12 1 14 -14 11 -10 -3 -19 -1 -19 5 0 6 -9 13
-20 17 -11 3 -27 22 -36 41 -9 19 -20 34 -25 34 -5 0 -9 7 -9 15 0 8 -9 15
-20 15 -16 0 -20 7 -20 30 0 20 -5 30 -15 30 -8 0 -15 7 -15 15 0 8 5 15 10
15 16 0 12 14 -15 42 -14 15 -25 31 -25 36 0 5 -6 15 -14 21 -15 13 -52 119
-48 139 2 7 -2 28 -7 45 -6 18 -13 48 -15 67 -3 19 -9 60 -15 90 -12 73 -13
338 -2 420 27 190 36 236 48 245 8 6 18 50 24 105 5 52 12 100 14 107 2 7 11
82 20 167 l16 154 -30 99 c-30 100 -69 319 -57 330 3 3 9 -8 12 -26 4 -17 11
-34 15 -37 5 -3 9 -15 9 -28 0 -12 4 -26 9 -31 5 -6 11 -35 12 -65 1 -30 5
-59 9 -65 4 -5 11 -28 15 -50 8 -48 33 -98 44 -90 5 2 15 -2 22 -11 11 -13 15
-12 35 13 22 27 23 28 37 8 11 -15 28 -20 64 -21 26 0 56 -4 65 -8 17 -8 17
-6 3 27 -13 32 -13 36 3 43 9 4 20 6 25 6 4 -1 7 3 7 9 0 5 4 8 9 4 5 -3 17 5
26 17 8 13 16 22 18 20 4 -7 57 18 57 27 0 13 -26 32 -33 24 -4 -3 -7 6 -7 21
0 20 6 29 21 33 18 5 20 11 16 42 -3 20 -22 65 -42 101 -34 60 -37 70 -32 123
3 36 1 55 -5 51 -5 -4 -8 7 -6 27 3 34 24 51 30 25 2 -10 23 11 56 55 29 39
55 76 58 83 2 6 -8 56 -24 111 l-29 100 -72 1 c-39 1 -75 4 -78 8 -4 3 -26 6
-50 6 -34 0 -48 -5 -66 -26 -12 -14 -32 -37 -44 -51 -13 -13 -23 -31 -23 -39
0 -9 -9 -23 -20 -32 -14 -12 -21 -34 -25 -72 -8 -97 -17 -145 -28 -158 -8 -10
-7 -16 3 -22 7 -4 10 -15 6 -25 -3 -9 1 -23 9 -31 8 -9 15 -22 15 -30 0 -25
-30 -15 -51 19 -22 35 -22 94 1 251 12 86 25 117 93 217 25 38 47 83 51 107
11 70 72 168 108 173 29 4 38 -2 38 -24 0 -13 -5 -28 -12 -35 -9 -9 -9 -15 -1
-23 8 -8 5 -17 -9 -31 l-21 -21 24 -18 c23 -18 23 -20 -3 -23 -16 -1 -21 -23
-8 -31 6 -4 17 -2 24 4 10 9 15 8 19 -4 4 -9 13 -12 22 -9 11 5 18 0 22 -15 7
-26 40 -28 59 -3 7 9 14 39 14 65 0 67 -41 148 -115 222 -55 56 -66 63 -131
78 -40 9 -86 17 -103 17 -36 0 -89 -25 -108 -49 -7 -9 -13 -11 -13 -5 0 26 84
105 146 135 60 30 69 32 144 26 71 -4 81 -3 90 13 5 10 24 85 41 167 73 355
166 607 293 793 71 106 237 246 386 327 245 133 658 246 1002 272 153 12 182
12 350 0z m1808 -2313 c0 -3 -4 -8 -10 -11 -5 -3 -10 -1 -10 4 0 6 5 11 10 11
6 0 10 -2 10 -4z m35 -155 c-3 -6 -11 -11 -16 -11 -5 0 -4 6 3 14 14 16 24 13
13 -3z m105 -1 c0 -5 -2 -10 -4 -10 -3 0 -8 5 -11 10 -3 6 -1 10 4 10 6 0 11
-4 11 -10z m-55 -51 c9 -39 21 -45 30 -12 4 17 2 29 -7 34 -7 4 -9 11 -5 15 3
4 13 1 21 -6 28 -23 -7 -180 -59 -265 -21 -34 -25 -37 -25 -17 0 13 5 33 12
45 13 24 20 147 8 147 -8 0 -22 41 -25 73 -1 9 4 17 12 17 9 0 11 5 7 13 -6 9
-3 8 8 -1 9 -7 20 -27 23 -43z m-429 -77 c6 -4 14 -19 18 -34 6 -27 5 -27 -21
-17 -43 16 -55 29 -42 45 13 15 28 18 45 6z m152 -18 c35 -17 46 -30 37 -43
-3 -5 -17 1 -32 15 -14 13 -40 28 -57 33 -30 9 -30 9 -5 10 14 1 40 -6 57 -15z
m-3839 -28 c10 -10 22 -29 26 -43 3 -14 17 -35 31 -45 25 -20 32 -38 14 -38
-5 0 -10 7 -10 15 0 26 -31 4 -37 -26 -6 -32 -24 -50 -31 -31 -6 20 -50 13
-66 -10 -29 -41 -35 -6 -23 122 8 77 47 100 96 56z m3921 -93 c0 -7 -7 -13
-15 -13 -10 0 -15 10 -15 32 0 30 1 31 15 12 8 -10 15 -25 15 -31z m121 -106
c-10 -9 -11 -8 -5 6 3 10 9 15 12 12 3 -3 0 -11 -7 -18z m-4014 -29 c-3 -8 -6
-5 -6 6 -1 11 2 17 5 13 3 -3 4 -12 1 -19z m163 7 c0 -8 -4 -15 -10 -15 -5 0
-7 7 -4 15 4 8 8 15 10 15 2 0 4 -7 4 -15z m-333 -47 c-3 -8 -6 -5 -6 6 -1 11
2 17 5 13 3 -3 4 -12 1 -19z m193 1 c0 -6 -4 -7 -10 -4 -5 3 -10 11 -10 16 0
6 5 7 10 4 6 -3 10 -11 10 -16z m-140 -103 c0 -3 -4 -8 -10 -11 -5 -3 -10 -1
-10 4 0 6 5 11 10 11 6 0 10 -2 10 -4z m2970 -441 c0 -8 -4 -15 -10 -15 -5 0
-10 7 -10 15 0 8 5 15 10 15 6 0 10 -7 10 -15z m-375 -24 c7 -12 -31 -25 -45
-16 -6 4 -8 11 -5 16 8 12 42 12 50 0z m1031 -71 c8 0 14 -7 14 -15 0 -18 0
-18 -40 -1 -30 12 -31 14 -14 24 11 6 20 7 22 1 2 -5 10 -9 18 -9z m21 -55 c3
-9 3 -18 1 -21 -9 -9 -35 7 -35 21 0 20 26 19 34 0z m-2022 -55 c-3 -5 -10
-10 -16 -10 -5 0 -9 5 -9 10 0 6 7 10 16 10 8 0 12 -4 9 -10z m225 -20 c0 -5
-5 -10 -11 -10 -5 0 -7 5 -4 10 3 6 8 10 11 10 2 0 4 -4 4 -10z m-380 -60 c0
-5 -5 -10 -11 -10 -5 0 -7 5 -4 10 3 6 8 10 11 10 2 0 4 -4 4 -10z m-50 -20
c-37 -29 -55 -26 -24 4 8 9 23 16 32 16 13 0 11 -5 -8 -20z m21 -66 c-7 -24
-10 -26 -16 -11 -4 9 -4 29 0 44 5 23 8 25 15 12 5 -9 5 -29 1 -45z m259 38
c0 -13 -12 -22 -22 -16 -10 6 -1 24 13 24 5 0 9 -4 9 -8z m467 -38 c-3 -3 -12
-4 -19 -1 -8 3 -5 6 6 6 11 1 17 -2 13 -5z m-257 -19 c-7 -9 -15 -13 -17 -11
-7 7 7 26 19 26 6 0 6 -6 -2 -15z m1437 -30 c0 -10 -6 -14 -14 -10 -8 3 -24 5
-34 5 -11 0 -17 5 -14 10 10 17 62 12 62 -5z m-1987 -65 c9 -16 8 -18 -5 -14
-11 5 -15 -1 -15 -23 0 -27 -15 -53 -30 -53 -10 0 1 59 11 66 5 3 9 14 9 25 0
25 16 25 30 -1z m1204 -12 c6 10 108 3 116 -8 3 -4 23 -11 45 -15 92 -17 98
-17 92 -3 -4 11 4 14 30 11 45 -3 52 -10 22 -22 -21 -8 -22 -10 -6 -16 10 -4
21 -5 24 -1 3 3 12 -2 19 -12 12 -16 13 -15 14 5 0 12 -6 23 -12 25 -7 3 -2 7
10 10 12 4 22 2 22 -4 0 -5 9 -6 21 -3 14 5 25 1 35 -12 12 -15 15 -16 23 -3
8 12 13 11 28 -6 12 -13 29 -19 50 -18 21 1 30 -2 27 -11 -3 -8 7 -11 31 -10
19 0 35 -2 35 -6 0 -11 54 -18 66 -8 7 6 22 6 38 -1 19 -7 33 -7 46 0 20 11
66 4 86 -11 6 -5 19 -44 30 -86 11 -47 27 -85 39 -95 11 -10 15 -17 8 -18 -6
0 -14 6 -16 13 -3 7 -6 7 -6 1 -1 -6 10 -24 24 -40 14 -16 28 -40 32 -54 3
-14 9 -29 13 -35 12 -18 29 -99 26 -130 -2 -16 -4 -43 -5 -60 -2 -16 -5 -24
-8 -17 -2 6 -9 10 -14 7 -5 -4 -6 2 -2 11 5 13 3 16 -10 11 -9 -3 -17 -2 -17
3 0 6 7 10 15 10 8 0 15 6 16 13 0 6 2 20 4 30 2 10 -8 31 -22 47 -14 17 -22
30 -18 30 3 0 3 5 0 10 -5 8 -11 8 -19 1 -7 -6 -16 -8 -20 -4 -3 4 1 -8 9 -25
11 -21 14 -43 9 -67 -10 -53 -23 -52 -18 2 4 35 1 53 -11 68 -16 20 -16 20 -6
-2 7 -14 8 -30 2 -45 -9 -22 -16 -11 -12 19 1 7 -4 10 -11 8 -9 -4 -13 8 -14
41 -1 25 -7 51 -14 57 -10 10 -12 8 -7 -6 4 -11 3 -16 -3 -12 -6 3 -10 14 -10
24 0 9 -9 27 -20 39 -21 23 -36 30 -25 12 3 -5 -1 -10 -9 -10 -19 0 -21 -21
-3 -39 10 -11 8 -11 -11 -2 -17 9 -21 18 -16 35 3 13 1 27 -5 31 -6 3 -8 17
-5 30 4 16 -1 30 -17 46 -26 26 -37 13 -19 -21 14 -27 11 -30 -18 -19 -14 5
-25 20 -28 39 -4 16 -10 30 -15 30 -5 0 -6 -8 -3 -17 5 -14 2 -14 -13 3 -24
29 -69 39 -77 18 -10 -25 -7 -41 5 -24 7 11 8 6 3 -20 -5 -29 -40 -90 -51 -90
-9 0 -1 20 17 40 11 13 20 25 20 27 0 2 -11 26 -25 54 -13 29 -22 55 -20 60 8
12 -8 18 -68 24 -53 5 -57 4 -57 -16 0 -11 4 -18 9 -15 12 8 22 -34 12 -52 -7
-12 -10 -11 -16 7 -3 11 -11 19 -16 16 -5 -4 -9 -1 -9 4 0 6 -5 11 -10 11 -6
0 -10 -6 -9 -12 1 -7 1 -20 0 -28 -1 -12 -3 -13 -10 -1 -7 11 -13 9 -30 -8
-11 -11 -21 -25 -21 -31 0 -5 -6 -10 -14 -10 -7 0 -17 -10 -21 -22 -21 -62
-23 -64 -24 -30 -1 24 7 41 30 63 19 18 32 42 33 60 2 32 -8 38 -22 12 -15
-25 -52 -24 -52 1 -1 21 -1 21 -16 1 -11 -14 -18 -16 -21 -7 -3 6 -8 12 -12
12 -9 0 -41 -56 -46 -81 -8 -41 -18 -34 -12 9 3 23 1 42 -4 42 -5 0 -9 -4 -9
-10 0 -5 -3 -9 -7 -9 -37 6 -51 -3 -57 -36 -4 -19 -12 -37 -18 -41 -7 -5 -9 1
-4 20 6 25 -6 36 -19 16 -3 -5 -13 -2 -23 8 -10 9 -14 20 -9 23 5 4 7 12 3 18
-9 14 -46 -8 -46 -29 0 -10 -5 -7 -16 8 -8 12 -12 27 -9 32 3 6 2 10 -4 10
-18 0 -34 40 -22 54 8 10 8 16 -3 25 -10 9 -16 8 -26 -4 -11 -14 -14 -13 -26
2 -17 23 -17 34 -1 32 6 -1 21 -1 31 0 18 1 18 2 1 21 -18 20 -17 20 13 20 29
0 58 20 30 20 -8 0 -6 5 5 11 15 9 16 13 5 27 -11 13 -10 15 10 10 12 -4 22
-3 22 1 0 4 15 11 33 17 24 7 35 7 44 -4 6 -7 14 -9 17 -4z m-464 4 c0 -13
-12 -22 -22 -16 -10 6 -1 24 13 24 5 0 9 -4 9 -8z m-699 -55 c-8 -8 -11 -7
-11 4 0 20 13 34 18 19 3 -7 -1 -17 -7 -23z m736 -9 c-3 -8 -6 -5 -6 6 -1 11
2 17 5 13 3 -3 4 -12 1 -19z m273 18 c0 -11 -19 -15 -25 -6 -3 5 1 10 9 10 9
0 16 -2 16 -4z m-130 -83 c-11 -17 -11 -17 -6 0 3 10 6 24 7 30 0 9 2 9 5 0 3
-7 0 -20 -6 -30z m-886 -43 c-12 -48 -13 -64 -4 -70 9 -5 9 -9 1 -14 -6 -4
-11 -3 -11 3 0 6 -7 8 -15 5 -12 -5 -12 0 -4 28 6 18 13 42 16 53 6 27 26 66
30 61 2 -1 -4 -31 -13 -66z m-164 45 c0 -8 -4 -15 -9 -15 -13 0 -22 16 -14 24
11 11 23 6 23 -9z m90 -4 c0 -12 -20 -36 -20 -24 0 6 -3 19 -6 27 -5 12 -2 15
10 10 9 -3 16 -9 16 -13z m2567 -43 c-3 -8 -6 -5 -6 6 -1 11 2 17 5 13 3 -3 4
-12 1 -19z m-2860 -55 c-3 -3 -11 -2 -17 2 -9 6 -9 10 1 16 14 8 27 -7 16 -18z
m2003 -9 c0 -13 -4 -24 -10 -24 -5 0 -10 14 -10 31 0 17 4 28 10 24 6 -3 10
-17 10 -31z m-1707 -14 c-15 -38 -33 -53 -33 -29 0 11 38 69 45 69 2 0 -4 -18
-12 -40z m1087 -7 c0 -18 -17 -16 -24 3 -8 22 4 40 15 23 5 -8 9 -20 9 -26z
m-1286 -15 c-2 -24 -8 -44 -14 -46 -5 -2 -10 -10 -10 -18 0 -8 -5 -14 -12 -14
-6 0 -20 -8 -31 -17 -19 -17 -20 -17 -8 4 6 13 21 28 32 34 16 8 20 18 16 42
-3 22 1 36 12 44 9 7 17 13 18 13 1 0 0 -19 -3 -42z m166 38 c0 -3 -4 -8 -10
-11 -5 -3 -10 -1 -10 4 0 6 5 11 10 11 6 0 10 -2 10 -4z m1770 -26 c0 -5 -5
-10 -11 -10 -5 0 -7 5 -4 10 3 6 8 10 11 10 2 0 4 -4 4 -10z m-2405 -28 c-6
-7 -45 9 -45 18 0 4 11 3 24 -3 14 -7 23 -13 21 -15z m568 8 c3 -11 1 -18 -4
-14 -5 3 -9 -4 -9 -15 0 -12 -6 -21 -14 -21 -15 0 -11 35 7 58 13 16 14 15 20
-8z m44 -27 c-3 -10 -5 -2 -5 17 0 19 2 27 5 18 2 -10 2 -26 0 -35z m1448 -25
c-4 -57 -13 -78 -35 -78 -14 0 -21 -11 -28 -42 -8 -35 -10 -37 -11 -15 -1 37
15 67 37 67 15 0 15 2 2 10 -13 9 -7 14 13 11 4 0 7 9 7 22 0 23 10 67 15 67
2 0 2 -19 0 -42z m-1861 17 c-4 -8 -1 -15 5 -15 6 0 11 -4 11 -10 0 -5 -6 -10
-14 -10 -19 0 -30 32 -14 42 18 11 18 10 12 -7z m51 -15 c3 -5 -1 -10 -10 -10
-9 0 -13 5 -10 10 3 6 8 10 10 10 2 0 7 -4 10 -10z m1615 0 c0 -5 -4 -10 -10
-10 -5 0 -10 5 -10 10 0 6 5 10 10 10 6 0 10 -4 10 -10z m233 -5 c-3 -9 -8
-14 -10 -11 -3 3 -2 9 2 15 9 16 15 13 8 -4z m-1583 -2 c0 -14 -19 -38 -25
-32 -8 8 5 39 16 39 5 0 9 -3 9 -7z m2570 -17 c0 -3 -4 -8 -10 -11 -5 -3 -10
-1 -10 4 0 6 5 11 10 11 6 0 10 -2 10 -4z m-2730 -71 c-7 -9 -15 -13 -18 -10
-3 2 1 11 8 20 7 9 15 13 18 10 3 -2 -1 -11 -8 -20z m1566 -79 c-4 -25 -12
-49 -18 -52 -7 -5 -9 2 -4 21 4 15 10 40 13 57 9 45 16 24 9 -26z m824 14 c0
-5 -2 -10 -4 -10 -3 0 -8 5 -11 10 -3 6 -1 10 4 10 6 0 11 -4 11 -10z m-2305
-50 c-3 -5 -12 -10 -18 -10 -7 0 -6 4 3 10 19 12 23 12 15 0z m-295 -30 c-9
-6 -17 -5 -22 3 -9 15 14 29 27 16 6 -6 5 -13 -5 -19z m255 0 c-3 -5 -12 -10
-18 -10 -7 0 -6 4 3 10 19 12 23 12 15 0z m-15 -100 c0 -5 -5 -10 -11 -10 -5
0 -7 5 -4 10 3 6 8 10 11 10 2 0 4 -4 4 -10z m2537 -12 c-3 -8 -6 -5 -6 6 -1
11 2 17 5 13 3 -3 4 -12 1 -19z m12 -152 c-5 -6 -9 -19 -9 -30 0 -17 -2 -18
-9 -7 -6 9 -6 22 0 32 12 23 12 69 -1 69 -6 0 -5 11 3 27 12 26 12 25 19 -27
4 -31 3 -59 -3 -64z m-100 31 c-2 -29 -3 -33 -6 -15 -6 36 -31 57 -45 37 -8
-12 -9 -12 -5 1 2 9 14 14 26 13 15 -2 20 1 15 9 -4 7 -3 8 4 4 7 -4 11 -26
11 -49z m-1276 28 c-3 -9 -8 -14 -10 -11 -3 3 -2 9 2 15 9 16 15 13 8 -4z
m734 -17 c-3 -8 -6 -5 -6 6 -1 11 2 17 5 13 3 -3 4 -12 1 -19z m-2007 -3 c-7
-8 -17 -15 -22 -15 -11 0 14 29 26 30 5 0 3 -7 -4 -15z m2407 -37 c-3 -7 -5
-2 -5 12 0 14 2 19 5 13 2 -7 2 -19 0 -25z m208 13 c-3 -6 -11 -11 -17 -11 -6
0 -6 6 2 15 14 17 26 13 15 -4z m-2655 -21 c0 -5 -4 -10 -10 -10 -5 0 -10 5
-10 10 0 6 5 10 10 10 6 0 10 -4 10 -10z m2030 -47 c-11 -17 -11 -17 -6 0 3
10 6 24 7 30 0 9 2 9 5 0 3 -7 0 -20 -6 -30z m378 -32 c12 -29 22 -59 22 -65
-1 -13 -44 77 -55 114 -12 42 10 9 33 -49z m60 44 c-3 -3 -9 2 -12 12 -6 14
-5 15 5 6 7 -7 10 -15 7 -18z m-2682 -12 c-10 -10 -19 5 -10 18 6 11 8 11 12
0 2 -7 1 -15 -2 -18z m125 0 c19 -16 49 -7 49 15 0 12 4 11 16 -6 10 -15 22
-21 32 -17 8 3 19 0 24 -7 14 -23 8 -27 -19 -12 -27 14 -28 13 -38 -20 -10
-35 -8 -35 -62 -7 -10 5 -17 16 -15 24 1 9 -6 18 -17 22 -12 4 -18 12 -14 20
5 15 16 12 44 -12z m-111 -43 c0 -12 -28 -20 -45 -14 -24 10 -17 19 15 20 17
1 30 -2 30 -6z m308 -11 c-2 -6 -8 -10 -13 -10 -5 0 -11 4 -13 10 -2 6 4 11
13 11 9 0 15 -5 13 -11z m1613 -12 c-10 -9 -11 -8 -5 6 3 10 9 15 12 12 3 -3
0 -11 -7 -18z m-1661 -7 c-20 -13 -40 -12 -40 1 0 6 7 9 15 6 8 -4 17 -2 21 4
3 6 9 8 12 4 4 -3 0 -10 -8 -15z m-57 -5 c4 -8 2 -17 -3 -20 -6 -4 -10 3 -10
14 0 25 6 27 13 6z m-103 -5 c0 -5 -4 -10 -10 -10 -5 0 -10 5 -10 10 0 6 5 10
10 10 6 0 10 -4 10 -10z m-715 -59 c3 -5 1 -12 -5 -16 -5 -3 -10 1 -10 9 0 18
6 21 15 7z m823 -44 c6 -5 12 -14 12 -19 0 -6 -6 -5 -15 2 -8 6 -19 9 -25 5
-5 -3 -10 -4 -10 -1 0 2 -3 12 -6 20 -5 12 -2 15 12 10 11 -4 25 -11 32 -17z
m47 3 c-3 -5 -12 -10 -18 -10 -7 0 -6 4 3 10 19 12 23 12 15 0z m-86 -47 c7
-5 -22 -33 -34 -33 -8 0 -11 8 -8 21 5 19 3 21 -20 15 -15 -3 -27 -2 -27 3 0
14 52 19 70 7 8 -6 17 -12 19 -13z m-669 -11 c0 -10 -5 -23 -12 -30 -8 -8 -8
-15 2 -28 13 -15 15 -14 21 3 7 17 8 17 8 -1 1 -13 6 -17 21 -13 11 3 20 1 20
-4 0 -5 9 -9 20 -9 11 0 20 -7 20 -15 0 -8 -3 -14 -7 -14 -21 3 -33 -2 -33
-16 0 -8 7 -15 15 -15 8 0 15 -7 15 -15 0 -8 -3 -15 -7 -15 -15 1 -43 27 -36
33 3 4 0 7 -7 7 -11 0 -11 3 -3 11 16 16 -8 39 -34 33 -22 -6 -61 25 -45 35
15 10 33 51 27 61 -3 6 -1 10 4 10 6 0 11 -8 11 -18z m820 -17 c0 -14 5 -25
12 -25 8 0 9 -3 2 -10 -14 -14 -68 5 -59 20 3 5 -1 10 -9 10 -9 0 -15 -4 -13
-9 1 -5 -1 -9 -5 -10 -5 -1 -8 1 -8 4 0 3 0 10 0 15 0 16 40 12 46 -5 10 -25
27 -17 22 10 -3 14 -1 25 3 25 5 0 9 -11 9 -25z m-117 -35 c13 -11 -39 -4 -60
9 -15 10 -12 11 17 5 19 -3 39 -10 43 -14z m227 -10 c9 -16 8 -18 -5 -14 -8 4
-15 12 -15 20 0 20 7 17 20 -6z m-164 -9 c-3 -5 4 -11 15 -14 24 -7 18 -22
-11 -30 -15 -4 -20 0 -20 14 0 10 -4 19 -10 19 -5 0 -10 5 -10 10 0 6 9 10 21
10 11 0 18 -4 15 -9z m79 -11 c3 -6 -1 -7 -9 -4 -18 7 -21 14 -7 14 6 0 13 -4
16 -10z m92 -16 c-3 -3 -12 -4 -19 -1 -8 3 -5 6 6 6 11 1 17 -2 13 -5z m-30
-30 c12 -12 7 -24 -9 -24 -5 0 -6 5 -3 10 3 6 1 10 -4 10 -6 0 -11 -5 -11 -10
0 -6 -8 -5 -20 2 -11 7 -20 16 -20 20 0 12 53 5 67 -8z m-284 -73 c-3 -21 0
-48 6 -60 8 -14 8 -21 1 -21 -5 0 -10 8 -10 17 0 9 -3 13 -6 10 -14 -13 -42
13 -37 33 4 16 8 18 19 9 11 -9 14 -6 14 20 0 17 4 31 9 31 5 0 7 -17 4 -39z
m457 35 c0 -3 -4 -8 -10 -11 -5 -3 -10 -1 -10 4 0 6 5 11 10 11 6 0 10 -2 10
-4z m-165 -16 c3 -5 1 -10 -4 -10 -6 0 -11 5 -11 10 0 6 2 10 4 10 3 0 8 -4
11 -10z m-257 -49 c3 -8 -1 -12 -9 -9 -7 2 -15 10 -17 17 -3 8 1 12 9 9 7 -2
15 -10 17 -17z m88 4 c4 -8 10 -15 15 -15 6 0 23 -10 39 -21 36 -27 22 -49
-25 -39 -26 5 -30 10 -27 34 2 22 0 27 -12 23 -11 -5 -16 0 -16 13 0 23 18 27
26 5z m214 -20 c0 -9 -6 -12 -15 -9 -8 4 -12 10 -9 15 8 14 24 10 24 -6z
m-250 -23 c0 -18 -28 -45 -38 -38 -17 10 -15 26 3 26 8 0 15 5 15 10 0 6 5 10
10 10 6 0 10 -4 10 -8z m-60 -68 c0 -14 -3 -14 -15 -4 -8 7 -15 14 -15 16 0 2
7 4 15 4 8 0 15 -7 15 -16z m66 -6 c3 6 11 12 17 12 8 0 8 -3 0 -11 -6 -6 -9
-18 -6 -26 5 -13 2 -12 -20 2 -14 9 -31 14 -38 10 -8 -5 -8 -1 1 15 11 21 12
21 26 3 11 -13 17 -14 20 -5z m-341 -28 c24 0 46 -4 50 -9 6 -10 -16 -36 -37
-44 -9 -4 -10 -8 -3 -14 6 -4 8 -21 4 -38 l-7 -30 -1 28 c-1 22 -7 29 -31 34
-36 7 -50 23 -21 23 12 0 21 5 21 10 0 6 -6 10 -13 10 -7 0 -13 12 -14 28 -1
15 1 21 4 15 3 -8 23 -13 48 -13z m315 -12 c0 -4 8 -8 18 -8 9 0 25 -14 34
-30 16 -29 38 -40 38 -21 0 5 14 12 30 16 17 4 30 11 30 16 0 5 7 9 15 9 25 0
17 -17 -11 -24 -18 -5 -23 -10 -16 -19 6 -8 3 -18 -9 -29 -15 -15 -19 -15 -30
-2 -7 8 -18 13 -24 10 -7 -2 -18 1 -24 7 -18 18 -22 2 -6 -29 18 -35 19 -54 3
-54 -7 0 -23 -3 -35 -6 -32 -9 -28 10 5 23 25 10 26 11 4 12 -27 1 -57 27 -66
59 -4 12 -14 22 -22 22 -8 0 -14 7 -14 16 0 12 6 15 25 10 20 -5 25 -3 25 12
0 10 7 19 15 19 8 0 15 -4 15 -9z m214 -3 c-4 -8 -10 -15 -14 -15 -4 0 -10 7
-14 15 -4 10 1 15 14 15 13 0 18 -5 14 -15z m-284 1 c0 -3 -13 -11 -30 -20
-31 -15 -39 -9 -18 12 11 11 48 17 48 8z m345 -28 c33 -15 32 -30 -2 -26 -17
2 -29 10 -31 21 -4 20 -1 21 33 5z m-639 -53 c-21 -16 -32 -13 -21 4 3 6 14
11 23 11 15 -1 15 -2 -2 -15z m134 -9 c0 -3 -4 -8 -10 -11 -5 -3 -10 -1 -10 4
0 6 5 11 10 11 6 0 10 -2 10 -4z m510 -10 c0 -9 -7 -12 -20 -9 -25 7 -25 -2 1
-39 12 -16 19 -31 17 -33 -7 -7 -48 7 -43 15 3 5 -5 6 -17 2 -14 -3 -19 -2
-14 6 4 7 2 12 -3 12 -6 0 -11 4 -11 10 0 5 6 7 13 4 7 -2 19 7 27 21 14 27
50 35 50 11z m-655 -16 c3 -5 -3 -10 -14 -10 -12 0 -21 5 -21 10 0 6 6 10 14
10 8 0 18 -4 21 -10z m753 -8 c3 -9 -2 -13 -14 -10 -9 1 -19 9 -22 16 -3 9 2
13 14 10 9 -1 19 -9 22 -16z m62 -36 c0 -3 -4 -8 -10 -11 -5 -3 -10 -1 -10 4
0 6 5 11 10 11 6 0 10 -2 10 -4z m-307 -26 c3 -13 0 -20 -9 -20 -8 0 -14 9
-14 20 0 11 4 20 9 20 5 0 11 -9 14 -20z m71 4 c20 -19 20 -25 1 -19 -8 3 -22
7 -31 10 -8 3 -12 9 -9 15 9 14 21 12 39 -6z m-164 -24 c0 -5 -4 -10 -10 -10
-5 0 -10 5 -10 10 0 6 5 10 10 10 6 0 10 -4 10 -10z m295 -8 c-3 -3 -11 0 -18
7 -9 10 -8 11 6 5 10 -3 15 -9 12 -12z m120 0 c-3 -3 -11 0 -18 7 -9 10 -8 11
6 5 10 -3 15 -9 12 -12z m-184 -30 c-7 -2 -17 2 -22 9 -7 12 -9 12 -9 0 0 -8
-3 -12 -6 -8 -15 14 8 27 29 15 15 -8 18 -13 8 -16z m-87 -17 c-4 -8 -7 -15
-9 -15 -2 0 -5 7 -9 15 -3 9 0 15 9 15 9 0 12 -6 9 -15z m976 -10 c11 -13 10
-14 -4 -9 -9 3 -16 10 -16 15 0 13 6 11 20 -6z m210 -15 c13 -9 13 -10 0 -10
-8 0 -22 5 -30 10 -13 9 -13 10 0 10 8 0 22 -5 30 -10z"/>
<path d="M4235 6217 c10 -8 15 -19 11 -25 -5 -8 0 -12 13 -12 12 0 21 -4 21
-9 0 -4 -26 -2 -57 6 -105 26 -244 32 -313 14 -25 -7 -54 -13 -66 -14 -11 -1
-27 -7 -35 -13 -8 -7 -28 -15 -46 -19 -18 -3 -49 -15 -70 -25 -21 -9 -53 -21
-70 -25 -34 -7 -46 -25 -17 -25 12 0 10 -5 -9 -20 -14 -11 -30 -20 -36 -20 -6
0 -11 -4 -11 -9 0 -13 46 -22 75 -15 20 5 24 11 19 26 -6 19 -3 20 32 14 33
-7 36 -6 25 7 -9 12 -9 17 0 23 7 4 14 3 16 -3 3 -7 19 -7 51 -1 60 11 131 20
157 20 44 -1 105 -14 110 -23 10 -15 38 -11 32 6 -5 11 -1 12 18 5 19 -7 23
-6 19 5 -5 12 1 11 35 -2 46 -18 51 -35 20 -57 -12 -8 -19 -19 -16 -24 4 -5
-8 -9 -24 -9 -31 0 -31 0 -7 13 22 13 23 13 2 14 -12 0 -25 7 -28 16 -3 8 -11
12 -16 9 -8 -5 -7 -11 1 -21 10 -12 6 -14 -22 -14 -67 1 -134 -3 -121 -7 6 -3
12 -13 12 -24 0 -15 -5 -17 -30 -12 -19 3 -30 1 -30 -5 0 -7 -13 -18 -30 -27
-19 -10 -27 -20 -24 -30 5 -13 2 -14 -21 -5 -37 14 -55 13 -55 -5 0 -8 -9 -15
-20 -15 -12 0 -24 -9 -29 -22 -11 -29 -59 -74 -88 -83 -30 -9 -29 -23 2 -31
35 -9 25 -29 -14 -28 -36 2 -40 -8 -9 -28 20 -13 18 -15 -37 -27 -78 -18 -59
-31 54 -37 82 -4 96 -3 127 16 18 12 34 25 34 29 0 25 84 28 185 6 27 -6 28
-5 13 8 -25 20 -22 36 9 48 31 12 38 6 50 -39 9 -35 24 -44 164 -96 29 -10 49
-24 52 -36 3 -14 14 -20 31 -20 41 0 104 -23 110 -40 4 -8 9 -21 12 -29 5 -11
2 -12 -12 -6 -26 10 -84 15 -84 6 0 -4 6 -13 13 -20 10 -11 8 -12 -10 -7 -16
5 -23 2 -28 -14 -8 -26 -29 -27 -22 -1 3 13 0 18 -8 15 -7 -3 -16 -1 -20 5 -3
6 -14 11 -23 11 -13 0 -12 -3 6 -16 l22 -15 -27 -27 -27 -26 23 -6 c12 -3 22
-8 22 -12 -3 -29 2 -36 29 -40 16 -2 32 0 34 6 2 6 5 4 5 -5 1 -24 27 -44 34
-27 4 9 11 7 24 -9 21 -25 78 -40 88 -23 5 9 9 9 14 1 5 -7 17 -8 41 -1 19 5
43 7 53 4 14 -4 21 2 30 25 6 17 18 31 25 31 11 0 12 -3 3 -14 -7 -8 -8 -17
-3 -20 5 -3 16 4 25 14 11 13 12 20 4 23 -15 5 9 37 28 37 14 0 29 -28 26 -47
-1 -6 3 -14 9 -18 5 -3 10 0 10 8 0 8 9 26 20 39 12 16 17 35 15 50 -3 17 0
28 10 32 8 3 15 12 15 20 0 26 34 85 52 91 9 4 28 19 42 36 25 29 46 38 46 18
0 -5 4 -8 10 -4 5 3 7 12 3 20 -3 8 0 15 7 15 6 0 9 4 6 8 -2 4 -1 14 5 22 6
10 9 11 9 3 0 -7 5 -13 11 -13 6 0 9 7 6 15 -4 8 -1 17 5 21 7 4 5 10 -6 16
-9 5 -20 7 -25 3 -15 -9 -23 14 -16 43 5 20 8 23 16 11 8 -12 10 -12 19 1 5 8
6 16 2 16 -4 1 -26 7 -49 14 -37 11 -41 15 -32 31 6 12 6 25 0 37 -9 17 -11
24 -11 42 0 6 -7 10 -15 10 -8 0 -15 7 -15 15 0 20 -18 19 -22 -1 -2 -13 -10
-9 -35 15 -37 35 -53 39 -54 14 -1 -30 -17 17 -18 52 -1 22 -4 26 -10 16 -7
-11 -17 -6 -45 25 -20 21 -36 35 -36 30 0 -5 -7 -3 -16 5 -12 10 -17 10 -23 1
-8 -13 -41 -6 -41 8 0 9 -49 24 -67 21 -7 -1 -13 5 -13 14 0 24 -41 55 -60 45
-21 -11 -86 0 -69 11 11 7 11 9 -1 10 -8 0 -4 5 10 9 23 7 22 8 -10 9 -19 1
-44 8 -54 16 -11 8 -27 15 -35 15 -11 0 -11 -3 4 -13z m55 -197 c0 -5 -7 -10
-16 -10 -8 0 -12 5 -9 10 3 6 10 10 16 10 5 0 9 -4 9 -10z m-73 -16 c-3 -3
-12 -4 -19 -1 -8 3 -5 6 6 6 11 1 17 -2 13 -5z m-177 -44 c-18 -11 -22 -7 -14
14 5 13 10 14 18 6 8 -8 7 -13 -4 -20z m-310 -115 c0 -8 -4 -15 -10 -15 -5 0
-10 7 -10 15 0 8 5 15 10 15 6 0 10 -7 10 -15z m433 -2 c-7 -2 -19 -2 -25 0
-7 3 -2 5 12 5 14 0 19 -2 13 -5z m-73 -12 c-14 -4 -47 -11 -75 -14 -44 -6
-47 -5 -26 6 14 6 48 13 75 13 36 2 44 0 26 -5z m249 -258 c1 -16 -35 -17 -44
-2 -4 5 1 19 11 30 17 19 19 19 25 2 4 -10 8 -24 8 -30z m231 -187 c0 -11 -19
-15 -25 -6 -3 5 1 10 9 10 9 0 16 -2 16 -4z m70 0 c0 -3 -4 -8 -10 -11 -5 -3
-10 -1 -10 4 0 6 5 11 10 11 6 0 10 -2 10 -4z m-260 -106 c0 -5 -2 -10 -4 -10
-3 0 -8 5 -11 10 -3 6 -1 10 4 10 6 0 11 -4 11 -10z"/>
<path d="M1785 6110 c-3 -5 -1 -10 4 -10 6 0 11 5 11 10 0 6 -2 10 -4 10 -3 0
-8 -4 -11 -10z"/>
<path d="M1870 6110 c0 -5 -6 -10 -12 -10 -8 0 -14 -16 -15 -40 -2 -31 1 -38
12 -34 12 5 15 -2 15 -29 0 -35 20 -62 28 -39 5 16 34 -15 51 -53 8 -17 16
-24 18 -17 3 6 15 12 28 12 31 0 58 57 49 104 -6 36 -19 48 -101 92 -49 26
-73 30 -73 14z"/>
<path d="M3518 5983 c7 -3 16 -2 19 1 4 3 -2 6 -13 5 -11 0 -14 -3 -6 -6z"/>
<path d="M3483 5963 c-12 -2 -27 -11 -33 -19 -7 -8 -23 -14 -36 -14 -12 0 -26
-4 -29 -10 -3 -5 3 -10 14 -10 12 0 21 -4 21 -9 0 -19 40 -19 51 1 6 11 16 17
24 15 18 -8 34 11 28 34 -3 10 -8 18 -12 18 -3 -1 -16 -4 -28 -6z"/>
<path d="M3380 5889 c0 -5 5 -7 10 -4 6 3 10 8 10 11 0 2 -4 4 -10 4 -5 0 -10
-5 -10 -11z"/>
<path d="M2053 5855 c0 -8 4 -15 9 -15 4 0 8 7 8 15 0 8 -4 15 -8 15 -5 0 -9
-7 -9 -15z"/>
<path d="M4890 5840 c0 -5 5 -10 10 -10 6 0 10 5 10 10 0 6 -4 10 -10 10 -5 0
-10 -4 -10 -10z"/>
<path d="M4040 5493 c0 -27 19 -40 31 -22 12 20 11 31 -2 23 -6 -3 -15 0 -20
7 -6 11 -9 8 -9 -8z"/>
<path d="M4123 5503 c-15 -5 -18 -33 -4 -33 5 0 11 9 14 20 3 11 4 20 4 19 -1
0 -8 -3 -14 -6z"/>
<path d="M4152 5461 c-8 -4 -10 -15 -6 -26 7 -17 8 -16 16 5 10 27 7 32 -10
21z"/>
<path d="M1914 5183 c-11 -26 -11 -63 0 -56 5 4 7 -3 4 -14 -3 -11 1 -28 8
-38 8 -10 14 -15 14 -11 0 5 7 3 15 -4 13 -11 15 -8 15 13 0 14 -8 30 -17 36
-14 7 -15 12 -5 24 15 18 6 67 -13 67 -7 0 -16 -8 -21 -17z"/>
<path d="M2300 4880 c0 -5 5 -10 11 -10 5 0 7 5 4 10 -3 6 -8 10 -11 10 -2 0
-4 -4 -4 -10z"/>
<path d="M4405 4731 c-3 -5 -1 -12 5 -16 5 -3 10 1 10 9 0 18 -6 21 -15 7z"/>
<path d="M4307 4703 c-11 -10 -8 -23 4 -23 6 0 17 -7 26 -16 10 -10 19 -12 25
-6 13 13 2 32 -18 32 -8 0 -12 5 -9 10 7 11 -18 14 -28 3z"/>
<path d="M4199 4668 c-6 -14 -5 -67 1 -63 5 3 11 1 14 -4 4 -5 -7 -12 -24 -16
-16 -4 -30 -10 -30 -15 0 -4 -10 -10 -21 -13 -16 -4 -20 -11 -16 -27 4 -15 1
-21 -11 -19 -33 3 -40 -1 -52 -30 -7 -17 -21 -32 -33 -34 -15 -3 -11 -5 11 -6
18 0 31 3 27 8 -3 6 3 9 12 9 26 -1 73 20 73 32 0 5 6 10 14 10 22 0 96 79 89
96 -4 10 0 12 13 8 11 -4 25 -12 32 -18 11 -8 13 -5 10 10 -2 16 3 19 30 19
20 0 32 5 32 13 0 10 -7 12 -25 8 -18 -5 -25 -2 -25 9 0 11 -11 14 -44 13 -25
-1 -43 -6 -40 -9 2 -4 0 -10 -6 -14 -5 -3 -10 3 -10 14 0 17 -16 30 -21 19z"/>
<path d="M1855 4620 c-11 -5 -32 -9 -47 -9 -41 -1 -68 -33 -68 -81 0 -46 11
-54 77 -55 27 0 51 7 72 22 16 13 36 20 44 17 19 -7 28 49 13 88 -8 22 -16 28
-41 27 -16 0 -39 -4 -50 -9z"/>
<path d="M4024 4350 c1 -17 4 -30 9 -30 10 0 9 48 -2 54 -4 3 -8 -8 -7 -24z"/>
<path d="M4515 4360 c3 -5 8 -10 11 -10 2 0 4 5 4 10 0 6 -5 10 -11 10 -5 0
-7 -4 -4 -10z"/>
<path d="M4430 4350 c0 -5 5 -10 10 -10 6 0 10 5 10 10 0 6 -4 10 -10 10 -5 0
-10 -4 -10 -10z"/>
<path d="M2200 4311 c0 -5 -8 -11 -17 -13 -15 -3 -15 -5 -3 -10 18 -7 45 18
30 27 -6 3 -10 2 -10 -4z"/>
<path d="M3095 4270 c-11 -16 -23 -30 -27 -30 -5 0 -8 -4 -8 -10 0 -17 28 1
33 21 3 10 11 19 19 19 9 0 9 -3 2 -8 -13 -8 -38 -81 -31 -89 10 -9 27 8 27
28 0 24 9 24 27 2 13 -17 14 -16 10 7 -2 14 -8 33 -12 43 -4 10 -4 17 1 16 21
-4 24 2 10 16 -21 21 -28 19 -51 -15z"/>
<path d="M2890 4282 c0 -5 7 -15 15 -22 8 -7 15 -8 15 -2 0 5 -7 15 -15 22 -8
7 -15 8 -15 2z"/>
<path d="M2811 4254 c0 -11 3 -14 6 -6 3 7 2 16 -1 19 -3 4 -6 -2 -5 -13z"/>
<path d="M2986 4252 c-8 -13 3 -42 15 -42 11 0 11 21 0 39 -5 8 -11 9 -15 3z"/>
<path d="M2856 4241 c-3 -4 3 -16 14 -26 19 -17 20 -17 26 0 9 23 -27 47 -40
26z"/>
<path d="M3232 4238 c-6 -6 -12 -20 -12 -29 0 -9 -7 -19 -15 -23 -8 -3 -15
-10 -15 -16 0 -20 40 10 51 37 12 32 8 48 -9 31z"/>
<path d="M2938 4216 c-29 -21 -22 -39 7 -20 14 9 25 20 25 25 0 13 -12 11 -32
-5z"/>
<path d="M3252 4174 c-7 -8 -8 -14 -3 -14 10 0 25 19 20 25 -2 1 -10 -3 -17
-11z"/>
<path d="M2940 4131 c0 -5 5 -13 10 -16 6 -3 10 -2 10 4 0 5 -4 13 -10 16 -5
3 -10 2 -10 -4z"/>
<path d="M2940 4080 c0 -5 5 -10 10 -10 6 0 10 5 10 10 0 6 -4 10 -10 10 -5 0
-10 -4 -10 -10z"/>
<path d="M5431 4044 c0 -11 3 -14 6 -6 3 7 2 16 -1 19 -3 4 -6 -2 -5 -13z"/>
<path d="M2700 4030 c-8 -5 -12 -12 -9 -15 4 -3 12 1 19 10 14 17 11 19 -10 5z"/>
<path d="M2507 3903 c-4 -3 -7 -11 -7 -17 0 -6 5 -5 12 2 6 6 9 14 7 17 -3 3
-9 2 -12 -2z"/>
<path d="M5478 3880 c-3 -19 0 -26 8 -23 17 6 24 41 9 47 -8 3 -14 -6 -17 -24z"/>
<path d="M2562 3888 c-16 -16 -15 -38 1 -38 6 0 13 11 13 25 2 29 2 29 -14 13z"/>
<path d="M2125 3880 c3 -5 8 -10 11 -10 2 0 4 5 4 10 0 6 -5 10 -11 10 -5 0
-7 -4 -4 -10z"/>
<path d="M2190 3877 c14 -8 27 -12 30 -10 7 6 -23 23 -40 23 -8 0 -4 -6 10
-13z"/>
<path d="M2665 3879 c-4 -6 -5 -12 -2 -15 2 -3 7 2 10 11 7 17 1 20 -8 4z"/>
<path d="M2511 3854 c0 -11 3 -14 6 -6 3 7 2 16 -1 19 -3 4 -6 -2 -5 -13z"/>
<path d="M2469 3853 c0 -5 -2 -23 -4 -41 -2 -27 0 -32 13 -27 8 3 19 0 23 -6
4 -8 9 -3 14 11 5 16 3 27 -7 34 -8 6 -13 17 -11 24 3 6 -2 12 -11 12 -9 0
-16 -3 -17 -7z"/>
<path d="M2615 3849 c-11 -17 1 -21 15 -4 8 9 8 15 2 15 -6 0 -14 -5 -17 -11z"/>
<path d="M2401 3835 c-17 -9 -20 -14 -10 -17 18 -6 49 2 49 13 0 15 -15 17
-39 4z"/>
<path d="M5490 3840 c-8 -5 -11 -12 -8 -16 4 -3 14 1 23 10 18 17 9 21 -15 6z"/>
<path d="M2210 3832 c0 -12 19 -26 26 -19 2 2 -2 10 -11 17 -9 8 -15 8 -15 2z"/>
<path d="M2320 3790 c0 -13 5 -20 13 -17 6 2 12 10 12 17 0 7 -6 15 -12 18 -8
2 -13 -5 -13 -18z"/>
<path d="M2170 3781 c0 -5 5 -13 10 -16 6 -3 10 -2 10 4 0 5 -4 13 -10 16 -5
3 -10 2 -10 -4z"/>
<path d="M2210 3772 c0 -5 7 -16 16 -23 14 -12 16 -11 13 5 -4 20 -29 35 -29
18z"/>
<path d="M5471 3764 c0 -11 3 -14 6 -6 3 7 2 16 -1 19 -3 4 -6 -2 -5 -13z"/>
<path d="M2458 3754 c-16 -8 -28 -19 -28 -24 0 -4 -3 -15 -6 -24 -5 -14 -3
-14 24 -1 18 9 32 25 34 40 3 14 5 25 4 25 0 -1 -13 -8 -28 -16z"/>
<path d="M2220 3722 c0 -15 11 -21 27 -15 12 5 12 7 1 14 -17 11 -28 11 -28 1z"/>
<path d="M2350 3720 c0 -5 5 -10 10 -10 6 0 10 5 10 10 0 6 -4 10 -10 10 -5 0
-10 -4 -10 -10z"/>
<path d="M2390 3670 c0 -5 5 -10 10 -10 6 0 10 5 10 10 0 6 -4 10 -10 10 -5 0
-10 -4 -10 -10z"/>
<path d="M2300 3640 c0 -21 16 -26 38 -12 9 6 6 12 -13 20 -22 10 -25 9 -25
-8z"/>
<path d="M2260 3631 c0 -6 4 -13 10 -16 6 -3 7 1 4 9 -7 18 -14 21 -14 7z"/>
<path d="M2380 3620 c0 -5 5 -10 11 -10 5 0 7 5 4 10 -3 6 -8 10 -11 10 -2 0
-4 -4 -4 -10z"/>
<path d="M2430 3620 c0 -5 4 -10 9 -10 6 0 13 5 16 10 3 6 -1 10 -9 10 -9 0
-16 -4 -16 -10z"/>
<path d="M2520 3530 c0 -5 6 -10 14 -10 8 0 18 5 21 10 3 6 -3 10 -14 10 -12
0 -21 -4 -21 -10z"/>
<path d="M2185 3480 c3 -5 12 -7 20 -3 21 7 19 13 -6 13 -11 0 -18 -4 -14 -10z"/>
<path d="M2165 3320 c4 -6 11 -8 16 -5 14 9 11 15 -7 15 -8 0 -12 -5 -9 -10z"/>
<path d="M2275 3179 c-4 -11 -4 -23 -2 -26 9 -8 27 7 27 22 0 23 -18 27 -25 4z"/>
<path d="M2341 3164 c0 -11 3 -14 6 -6 3 7 2 16 -1 19 -3 4 -6 -2 -5 -13z"/>
<path d="M2125 3130 c3 -5 8 -10 11 -10 2 0 4 5 4 10 0 6 -5 10 -11 10 -5 0
-7 -4 -4 -10z"/>
<path d="M2087 3103 c-12 -11 -8 -21 12 -26 14 -3 17 0 14 14 -5 20 -15 24
-26 12z"/>
<path d="M2175 3080 c-3 -5 -1 -10 4 -10 6 0 11 5 11 10 0 6 -2 10 -4 10 -3 0
-8 -4 -11 -10z"/>
<path d="M2327 3055 c-5 -11 0 -15 16 -15 12 0 18 4 12 8 -5 4 -13 11 -16 15
-4 4 -9 1 -12 -8z"/>
<path d="M2020 3019 c0 -5 5 -7 10 -4 6 3 10 8 10 11 0 2 -4 4 -10 4 -5 0 -10
-5 -10 -11z"/>
<path d="M2126 2943 c-10 -24 6 -32 34 -17 14 8 22 14 18 15 -5 1 -11 2 -15 3
-5 1 -13 5 -19 9 -7 4 -15 0 -18 -10z"/>
<path d="M2086 2921 c-3 -5 1 -11 9 -15 15 -6 29 7 18 18 -9 9 -21 8 -27 -3z"/>
<path d="M2028 2883 c-10 -2 -18 -10 -18 -18 0 -7 8 -12 18 -11 9 2 26 -3 37
-9 11 -7 34 -15 50 -19 28 -6 29 -5 11 9 -11 8 -26 15 -33 15 -7 0 -13 5 -13
11 0 6 -7 9 -15 6 -8 -4 -17 -2 -20 3 -3 4 1 11 7 13 16 7 0 6 -24 0z"/>
<path d="M2031 2804 c-7 -8 -11 -16 -10 -18 2 -1 18 -10 34 -21 29 -18 30 -18
13 1 -12 14 -14 24 -7 37 13 22 -10 23 -30 1z"/>
<path d="M1980 2800 c0 -5 5 -10 10 -10 6 0 10 5 10 10 0 6 -4 10 -10 10 -5 0
-10 -4 -10 -10z"/>
<path d="M2100 2782 c0 -5 10 -12 23 -14 26 -5 76 6 62 13 -19 10 -85 11 -85
1z"/>
<path d="M2020 2740 c0 -6 7 -10 15 -10 8 0 15 2 15 4 0 2 -7 6 -15 10 -8 3
-15 1 -15 -4z"/>
<path d="M2266 2714 c-4 -9 -4 -19 -1 -22 2 -3 7 3 11 12 4 9 4 19 1 22 -2 3
-7 -3 -11 -12z"/>
<path d="M2000 2666 c0 -2 9 -6 20 -9 11 -3 20 -1 20 4 0 5 -9 9 -20 9 -11 0
-20 -2 -20 -4z"/>
<path d="M2050 2620 c0 -5 5 -10 10 -10 6 0 10 5 10 10 0 6 -4 10 -10 10 -5 0
-10 -4 -10 -10z"/>
<path d="M2148 2621 c-20 -4 -25 -10 -19 -20 5 -7 14 -10 20 -7 6 4 11 2 11
-3 0 -6 7 -11 16 -11 10 0 14 6 10 15 -3 8 -1 15 5 15 6 0 7 5 4 10 -7 11 -7
11 -47 1z"/>
<path d="M2225 2609 c-11 -17 1 -21 15 -4 8 9 8 15 2 15 -6 0 -14 -5 -17 -11z"/>
<path d="M2090 2599 c0 -5 5 -7 10 -4 6 3 10 8 10 11 0 2 -4 4 -10 4 -5 0 -10
-5 -10 -11z"/>
<path d="M2196 2534 c-9 -22 -8 -24 9 -24 8 0 15 9 15 20 0 24 -15 27 -24 4z"/>
<path d="M2232 2496 c-23 -23 -21 -39 4 -29 8 3 14 11 14 19 0 17 12 18 28 2
7 -7 12 -8 12 -2 0 11 -21 34 -29 33 -4 0 -16 -10 -29 -23z"/>
<path d="M2168 2493 c7 -3 16 -2 19 1 4 3 -2 6 -13 5 -11 0 -14 -3 -6 -6z"/>
<path d="M2306 2451 c-4 -7 -5 -15 -2 -18 9 -9 19 4 14 18 -4 11 -6 11 -12 0z"/>
<path d="M2198 2423 c7 -3 16 -2 19 1 4 3 -2 6 -13 5 -11 0 -14 -3 -6 -6z"/>
<path d="M4530 3740 c0 -5 5 -10 11 -10 5 0 7 5 4 10 -3 6 -8 10 -11 10 -2 0
-4 -4 -4 -10z"/>
<path d="M4030 3730 c0 -5 5 -10 10 -10 6 0 10 5 10 10 0 6 -4 10 -10 10 -5 0
-10 -4 -10 -10z"/>
<path d="M4675 3630 c4 -6 11 -8 16 -5 14 9 11 15 -7 15 -8 0 -12 -5 -9 -10z"/>
<path d="M4070 3600 c0 -6 7 -10 15 -10 8 0 15 2 15 4 0 2 -7 6 -15 10 -8 3
-15 1 -15 -4z"/>
<path d="M4106 3571 c-4 -7 -5 -15 -2 -18 9 -9 19 4 14 18 -4 11 -6 11 -12 0z"/>
<path d="M4880 3553 c0 -5 8 -18 18 -31 l18 -23 2 31 c2 24 -2 30 -18 30 -11
0 -20 -3 -20 -7z"/>
<path d="M2418 2903 c7 -3 16 -2 19 1 4 3 -2 6 -13 5 -11 0 -14 -3 -6 -6z"/>
<path d="M2476 2255 c4 -8 10 -12 15 -9 14 8 10 24 -6 24 -9 0 -12 -6 -9 -15z"/>
<path d="M8610 733 c-33 -12 -50 -41 -41 -66 6 -14 8 -27 5 -29 -4 -4 38 -4
59 0 4 1 7 25 7 52 0 50 -2 53 -30 43z"/>
</g>
</svg>
