<svg xmlns="http://www.w3.org/2000/svg" width="20" height="20" viewBox="0 0 20 20">
  <path d="M10.5 4h.5v.5c0 .3.2.5.5.5s.5-.2.5-.5V4h.5c.3 0 .5-.2.5-.5s-.2-.5-.5-.5H12v-.5c0-.3-.2-.5-.5-.5s-.5.2-.5.5V3h-.5c-.3 0-.5.2-.5.5s.2.5.5.5zM15.6 11.8c-.533.133-1.067.2-1.6.2-3.333 0-6-2.667-6-6 0-.533.067-1.067.2-1.6.067-.2 0-.467-.2-.667s-.4-.266-.667-.2C4.2 4.467 2 7.4 2 10.667A7.312 7.312 0 009.333 18c3.267 0 6.2-2.2 7.067-5.4.067-.2 0-.467-.2-.667a.64.64 0 00-.6-.133zM16 7h.5c.3 0 .5.2.5.5s-.2.5-.5.5H16v.5c0 .3-.2.5-.5.5s-.5-.2-.5-.5V8h-.5c-.3 0-.5-.2-.5-.5s.2-.5.5-.5h.5v-.5c0-.3.2-.5.5-.5s.5.2.5.5V7z"/>
</svg>
