<svg xmlns="http://www.w3.org/2000/svg" viewBox="0 0 20 20">
  <path fill-rule="evenodd" d="M6 10c0 2.2091 1.79086 4 4 4 2.2091 0 4-1.7909 4-4 0-2.20914-1.7909-4-4-4-2.20914 0-4 1.79086-4 4zm4 2.2857c1.2624 0 2.2857-1.0233 2.2857-2.2857 0-1.26236-1.0233-2.28571-2.2857-2.28571-1.26236 0-2.28571 1.02335-2.28571 2.28571 0 1.2624 1.02335 2.2857 2.28571 2.2857z" clip-rule="evenodd"/>
  <path d="M14 7c.5523 0 1-.44772 1-1s-.4477-1-1-1-1 .44772-1 1 .4477 1 1 1z"/>
  <path fill-rule="evenodd" d="M7.12777 2h5.74443c1.7831 0 2.4296.18565 3.0815.53427.6518.34861 1.1634.86019 1.512 1.51204S18 5.34473 18 7.12777v5.74443c0 1.7831-.1857 2.4296-.5343 3.0815-.3486.6518-.8602 1.1634-1.512 1.512-.6519.3486-1.2984.5343-3.0815.5343H7.12777c-1.78304 0-2.42961-.1857-3.08146-.5343s-1.16343-.8602-1.51204-1.512C2.18565 15.3018 2 14.6553 2 12.8722V7.12777c0-1.78304.18565-2.42961.53427-3.08146.34861-.65185.86019-1.16343 1.51204-1.51204C4.69816 2.18565 5.34473 2 7.12777 2zM6.991 3.71429c-1.38674 0-1.80904.08155-2.24009.31208-.31775.16993-.55461.40679-.72454.72454-.23053.43105-.31208.85335-.31208 2.24009v6.018c0 1.3867.08155 1.809.31208 2.2401.16993.3177.40679.5546.72454.7245.43105.2306.85335.3121 2.24009.3121h6.018c1.3867 0 1.809-.0815 2.2401-.3121.3177-.1699.5546-.4068.7245-.7245.2306-.4311.3121-.8534.3121-2.2401V6.991c0-1.38674-.0815-1.80904-.3121-2.24009-.1699-.31775-.4068-.55461-.7245-.72454-.4311-.23053-.8534-.31208-2.2401-.31208H6.991z" clip-rule="evenodd"/>
</svg>
