<svg xmlns="http://www.w3.org/2000/svg" viewBox="0 0 20 20">
  <path fill-rule="evenodd" d="M16.1416 5.28287c.6789-.45105 1.4196-1.35777 1.6652-2.20888-.6355.41774-1.5662.82969-2.3154.99312C14.8915 3.35874 14.0445 3 13.0985 3c-1.8162 0-3.28885 1.63179-3.28885 3.64454 0 .28566.0291.56385.0852.83059-2.73336-.15198-5.15676-1.60301-6.77881-3.80806-.2831.53827-.44532 1.16439-.44532 1.83235 0 1.2645.58062 2.38004 1.4631 3.03361-.53911-.01892-1.04623-.18289-1.48964-.45585-.00032.01519-.00032.03038-.00032.04583 0 .92105.30844 1.76245.81705 2.40419.3005.3792.67086.6887 1.08878.9037.23087.1189.73239.2659.73239.2659s-.56652.1279-.86645.1279c-.21192 0-.41799-.023-.61877-.0655.41847 1.4479 1.63302 2.5017 3.07224 2.531-1.12558.9776-2.54364 1.5603-4.08457 1.5603-.26546 0-.52724-.0173-.78453-.051C3.45549 16.8336 5.22257 17.4 7.07987 17.4c6.04933 0 9.31913-5.5165 9.31913-10.33284 0-.15801-.0033-.31514-.0096-.47147.6426-.51394 1.1154-.7622 1.6106-1.45265-.6254.13983-1.1932.0518-1.8584.13983z" clip-rule="evenodd"/>
</svg>
